<svg id="svg" version="1.1" xmlns="http://www.w3.org/2000/svg" xmlns:xlink="http://www.w3.org/1999/xlink" width="400" height="400" viewBox="0, 0, 400,400"><g id="svgg"><path id="path0" d="M177.600 54.734 C 176.610 55.140,174.810 56.066,173.600 56.792 C 172.390 57.518,170.860 58.425,170.200 58.807 C 169.540 59.189,165.670 61.437,161.600 63.803 C 157.530 66.168,150.807 70.061,146.660 72.453 C 137.066 77.987,136.819 78.158,134.727 80.695 C 132.234 83.721,132.400 75.245,132.404 199.262 C 132.409 319.150,132.326 313.576,134.155 317.113 C 135.284 319.296,140.501 323.051,148.388 327.357 C 148.834 327.601,151.854 329.348,155.099 331.239 C 164.918 336.963,170.933 340.461,172.245 341.212 C 172.930 341.604,173.830 342.119,174.245 342.356 C 179.246 345.216,184.395 344.798,190.818 341.013 C 192.238 340.176,193.940 339.181,194.600 338.802 C 195.260 338.423,199.760 335.807,204.600 332.990 C 217.795 325.309,222.808 322.407,224.800 321.296 C 225.790 320.745,226.780 320.161,227.000 320.000 C 227.220 319.839,228.210 319.255,229.200 318.702 C 230.190 318.149,233.160 316.437,235.800 314.898 C 247.561 308.039,255.462 303.446,256.200 303.039 C 264.072 298.692,267.362 295.886,268.500 292.546 C 269.627 289.240,269.558 197.827,268.427 195.335 C 265.398 188.666,259.521 187.602,251.352 192.245 C 214.280 213.314,213.323 213.937,211.268 218.321 L 210.200 220.600 210.082 244.136 C 209.981 264.293,210.052 267.973,210.574 269.771 C 213.148 278.622,225.607 279.580,229.362 271.214 L 230.400 268.900 230.400 248.512 C 230.400 229.590,230.450 228.081,231.100 227.525 C 231.741 226.977,240.315 221.990,245.600 219.091 C 246.810 218.428,248.003 217.727,248.251 217.534 C 248.548 217.303,248.785 217.493,248.946 218.092 C 249.299 219.409,249.244 282.911,248.890 283.469 C 248.646 283.851,235.790 291.600,235.399 291.600 C 235.334 291.600,234.069 292.337,232.588 293.237 C 231.106 294.137,229.287 295.217,228.547 295.637 C 225.772 297.209,211.489 305.477,201.000 311.582 C 197.480 313.631,193.970 315.662,193.200 316.096 C 192.430 316.530,191.620 317.020,191.400 317.185 C 191.180 317.350,190.010 318.025,188.800 318.685 C 187.590 319.345,185.471 320.552,184.091 321.367 C 181.324 323.001,181.648 323.028,177.900 320.865 C 177.075 320.389,175.815 319.665,175.100 319.256 C 174.385 318.847,172.810 317.921,171.600 317.200 C 170.390 316.479,168.860 315.579,168.200 315.201 C 167.540 314.823,166.261 314.083,165.359 313.557 C 164.456 313.030,161.261 311.191,158.259 309.469 L 152.800 306.337 152.800 199.460 L 152.800 92.582 156.900 90.213 C 159.155 88.911,162.759 86.800,164.909 85.522 C 167.060 84.245,168.891 83.200,168.980 83.200 C 169.069 83.200,170.608 82.300,172.400 81.200 C 174.192 80.100,175.707 79.200,175.766 79.200 C 176.238 79.200,186.416 72.955,187.823 71.802 C 196.569 64.636,188.065 50.437,177.600 54.734 M179.342 99.307 C 176.594 99.830,173.763 101.997,172.427 104.600 L 171.400 106.600 171.400 199.400 L 171.400 292.200 172.472 294.231 C 175.776 300.493,183.781 301.524,188.815 296.337 C 191.826 293.234,191.600 301.123,191.600 199.178 C 191.600 98.789,191.781 106.072,189.203 102.863 C 187.515 100.763,185.705 99.802,182.000 99.038 C 181.670 98.970,180.474 99.091,179.342 99.307 " stroke="none" fill="#ffffff" fill-rule="evenodd"></path><path id="path1" d="M178.900 0.274 C 176.865 0.360,175.200 0.603,175.200 0.815 C 175.200 1.030,173.783 1.200,172.000 1.200 C 170.133 1.200,168.800 1.367,168.800 1.600 C 168.800 1.820,167.821 2.000,166.624 2.000 C 165.427 2.000,164.336 2.180,164.200 2.400 C 164.064 2.620,162.973 2.800,161.776 2.800 C 160.579 2.800,159.600 2.962,159.600 3.160 C 159.600 3.358,158.790 3.628,157.800 3.760 C 156.810 3.892,155.190 4.108,154.200 4.240 C 153.210 4.372,152.400 4.642,152.400 4.840 C 152.400 5.038,151.680 5.200,150.800 5.200 C 149.920 5.200,149.200 5.380,149.200 5.600 C 149.200 5.820,148.581 6.000,147.824 6.000 C 147.067 6.000,146.336 6.180,146.200 6.400 C 146.064 6.620,145.434 6.800,144.800 6.800 C 144.166 6.800,143.536 6.980,143.400 7.200 C 143.264 7.420,142.569 7.600,141.856 7.600 C 141.143 7.600,140.389 7.752,140.180 7.937 C 139.971 8.123,138.765 8.590,137.500 8.974 C 136.235 9.359,135.200 9.838,135.200 10.037 C 135.200 10.237,134.660 10.400,134.000 10.400 C 133.340 10.400,132.800 10.580,132.800 10.800 C 132.800 11.020,132.440 11.200,132.000 11.200 C 131.560 11.200,131.200 11.380,131.200 11.600 C 131.200 11.820,130.671 12.000,130.024 12.000 C 129.377 12.000,128.736 12.180,128.600 12.400 C 128.464 12.620,127.913 12.800,127.376 12.800 C 126.839 12.800,126.400 12.980,126.400 13.200 C 126.400 13.420,125.950 13.600,125.400 13.600 C 124.850 13.600,124.400 13.780,124.400 14.000 C 124.400 14.220,123.860 14.400,123.200 14.400 C 122.540 14.400,121.999 14.535,121.997 14.700 C 121.993 15.059,120.056 16.000,119.320 16.000 C 119.034 16.000,118.800 16.180,118.800 16.400 C 118.800 16.620,118.440 16.800,118.000 16.800 C 117.560 16.800,117.200 16.980,117.200 17.200 C 117.200 17.420,116.660 17.600,116.000 17.600 C 115.340 17.600,114.800 17.780,114.800 18.000 C 114.800 18.220,114.440 18.400,114.000 18.400 C 113.560 18.400,113.200 18.580,113.200 18.800 C 113.200 19.020,112.840 19.200,112.400 19.200 C 111.960 19.200,111.600 19.380,111.600 19.600 C 111.600 19.820,111.240 20.000,110.800 20.000 C 110.360 20.000,110.000 20.180,110.000 20.400 C 110.000 20.620,109.748 20.800,109.441 20.800 C 109.133 20.800,107.828 21.366,106.541 22.059 C 105.253 22.751,103.796 23.516,103.303 23.759 C 102.810 24.001,102.405 24.335,102.403 24.500 C 102.401 24.665,102.055 24.800,101.633 24.800 C 101.212 24.800,100.807 24.935,100.733 25.100 C 100.660 25.265,99.790 25.837,98.800 26.370 C 97.810 26.904,96.910 27.444,96.800 27.570 C 96.690 27.697,95.970 28.147,95.200 28.572 C 94.430 28.996,93.509 29.671,93.153 30.072 C 92.797 30.472,92.295 30.800,92.036 30.800 C 91.778 30.800,91.180 31.160,90.708 31.600 C 90.236 32.040,89.523 32.400,89.125 32.400 C 88.726 32.400,88.400 32.580,88.400 32.800 C 88.400 33.020,88.130 33.200,87.800 33.200 C 87.470 33.200,87.200 33.380,87.200 33.600 C 87.200 33.820,86.970 34.000,86.688 34.000 C 86.407 34.000,85.917 34.360,85.600 34.800 C 85.283 35.240,84.743 35.600,84.400 35.600 C 84.057 35.600,83.517 35.960,83.200 36.400 C 82.883 36.840,82.375 37.200,82.072 37.200 C 81.769 37.200,81.017 37.740,80.400 38.400 C 79.783 39.060,79.119 39.600,78.924 39.600 C 78.728 39.600,77.772 40.320,76.800 41.200 C 75.828 42.080,74.872 42.800,74.676 42.800 C 74.481 42.800,73.844 43.302,73.260 43.915 C 72.677 44.529,71.570 45.461,70.800 45.987 C 70.030 46.512,68.349 47.994,67.063 49.279 C 65.778 50.564,64.071 52.107,63.269 52.708 C 61.242 54.227,51.200 64.434,51.200 64.975 C 51.200 65.064,50.120 66.216,48.800 67.536 C 47.480 68.856,46.400 70.118,46.400 70.341 C 46.400 70.564,45.500 71.671,44.400 72.800 C 43.300 73.929,42.400 74.999,42.400 75.176 C 42.400 75.354,41.770 76.187,41.000 77.028 C 40.230 77.869,39.600 78.751,39.600 78.990 C 39.600 79.228,39.240 79.683,38.800 80.000 C 38.360 80.317,38.000 80.780,38.000 81.029 C 38.000 81.278,37.460 82.046,36.800 82.737 C 36.140 83.428,35.600 84.225,35.600 84.508 C 35.600 84.791,35.240 85.283,34.800 85.600 C 34.360 85.917,34.000 86.414,34.000 86.705 C 34.000 86.996,33.640 87.620,33.200 88.092 C 32.760 88.564,32.400 89.237,32.400 89.587 C 32.400 89.937,32.040 90.483,31.600 90.800 C 31.160 91.117,30.800 91.615,30.800 91.906 C 30.800 92.198,30.395 92.870,29.900 93.399 C 28.310 95.099,28.000 95.554,28.000 96.183 C 28.000 96.522,27.842 96.800,27.649 96.800 C 27.455 96.800,27.073 97.340,26.800 98.000 C 26.527 98.660,26.145 99.200,25.951 99.200 C 25.758 99.200,25.600 99.560,25.600 100.000 C 25.600 100.440,25.420 100.800,25.200 100.800 C 24.980 100.800,24.800 101.160,24.800 101.600 C 24.800 102.040,24.646 102.400,24.458 102.400 C 24.065 102.400,20.792 108.747,20.797 109.500 C 20.799 109.775,20.620 110.000,20.400 110.000 C 20.180 110.000,20.000 110.360,20.000 110.800 C 20.000 111.240,19.820 111.600,19.600 111.600 C 19.380 111.600,19.200 111.960,19.200 112.400 C 19.200 112.840,19.020 113.200,18.800 113.200 C 18.580 113.200,18.400 113.560,18.400 114.000 C 18.400 114.440,18.220 114.800,18.000 114.800 C 17.780 114.800,17.600 115.149,17.600 115.576 C 17.600 116.003,17.420 116.464,17.200 116.600 C 16.980 116.736,16.800 117.287,16.800 117.824 C 16.800 118.361,16.620 118.800,16.400 118.800 C 16.180 118.800,16.000 119.160,16.000 119.600 C 16.000 120.040,15.820 120.400,15.600 120.400 C 15.380 120.400,15.200 120.760,15.200 121.200 C 15.200 121.640,15.020 122.000,14.800 122.000 C 14.580 122.000,14.400 122.540,14.400 123.200 C 14.400 123.860,14.220 124.400,14.000 124.400 C 13.780 124.400,13.600 124.749,13.600 125.176 C 13.600 125.603,13.420 126.064,13.200 126.200 C 12.980 126.336,12.800 126.887,12.800 127.424 C 12.800 127.961,12.620 128.400,12.400 128.400 C 12.180 128.400,12.000 128.850,12.000 129.400 C 12.000 129.950,11.820 130.400,11.600 130.400 C 11.380 130.400,11.200 130.940,11.200 131.600 C 11.200 132.260,11.020 132.800,10.800 132.800 C 10.580 132.800,10.400 133.340,10.400 134.000 C 10.400 134.660,10.237 135.200,10.037 135.200 C 9.838 135.200,9.359 136.235,8.974 137.500 C 8.590 138.765,8.123 139.971,7.937 140.180 C 7.752 140.389,7.600 141.154,7.600 141.880 C 7.600 142.606,7.420 143.200,7.200 143.200 C 6.980 143.200,6.800 143.819,6.800 144.576 C 6.800 145.333,6.620 146.064,6.400 146.200 C 6.180 146.336,6.000 147.067,6.000 147.824 C 6.000 148.581,5.820 149.200,5.600 149.200 C 5.380 149.200,5.200 149.920,5.200 150.800 C 5.200 151.680,5.020 152.400,4.800 152.400 C 4.580 152.400,4.400 153.109,4.400 153.976 C 4.400 154.843,4.220 155.664,4.000 155.800 C 3.780 155.936,3.600 156.847,3.600 157.824 C 3.600 158.801,3.420 159.600,3.200 159.600 C 2.980 159.600,2.800 160.489,2.800 161.576 C 2.800 162.663,2.620 163.664,2.400 163.800 C 2.180 163.936,2.000 165.016,2.000 166.200 C 2.000 167.384,1.820 168.464,1.600 168.600 C 1.380 168.736,1.200 170.061,1.200 171.544 C 1.200 173.167,1.001 174.439,0.700 174.740 C -0.029 175.469,-0.029 224.531,0.700 225.260 C 1.001 225.561,1.200 226.833,1.200 228.456 C 1.200 229.939,1.380 231.264,1.600 231.400 C 1.820 231.536,2.000 232.616,2.000 233.800 C 2.000 234.984,2.180 236.064,2.400 236.200 C 2.620 236.336,2.800 237.337,2.800 238.424 C 2.800 239.511,2.980 240.400,3.200 240.400 C 3.420 240.400,3.600 241.199,3.600 242.176 C 3.600 243.153,3.780 244.064,4.000 244.200 C 4.220 244.336,4.400 245.157,4.400 246.024 C 4.400 246.891,4.580 247.600,4.800 247.600 C 5.020 247.600,5.200 248.320,5.200 249.200 C 5.200 250.080,5.380 250.800,5.600 250.800 C 5.820 250.800,6.000 251.419,6.000 252.176 C 6.000 252.933,6.180 253.664,6.400 253.800 C 6.620 253.936,6.800 254.566,6.800 255.200 C 6.800 255.834,6.980 256.464,7.200 256.600 C 7.420 256.736,7.600 257.203,7.600 257.638 C 7.600 258.812,9.651 264.800,10.053 264.800 C 10.244 264.800,10.400 265.340,10.400 266.000 C 10.400 266.660,10.580 267.200,10.800 267.200 C 11.020 267.200,11.200 267.549,11.200 267.976 C 11.200 268.403,11.380 268.864,11.600 269.000 C 11.820 269.136,12.000 269.777,12.000 270.424 C 12.000 271.071,12.180 271.600,12.400 271.600 C 12.620 271.600,12.800 272.039,12.800 272.576 C 12.800 273.113,12.980 273.664,13.200 273.800 C 13.420 273.936,13.600 274.397,13.600 274.824 C 13.600 275.251,13.780 275.600,14.000 275.600 C 14.220 275.600,14.400 276.140,14.400 276.800 C 14.400 277.460,14.580 278.000,14.800 278.000 C 15.020 278.000,15.200 278.360,15.200 278.800 C 15.200 279.240,15.380 279.600,15.600 279.600 C 15.820 279.600,16.000 279.960,16.000 280.400 C 16.000 280.840,16.180 281.200,16.400 281.200 C 16.620 281.200,16.800 281.639,16.800 282.176 C 16.800 282.713,16.980 283.264,17.200 283.400 C 17.420 283.536,17.600 283.997,17.600 284.424 C 17.600 284.851,17.780 285.200,18.000 285.200 C 18.220 285.200,18.400 285.560,18.400 286.000 C 18.400 286.440,18.580 286.800,18.800 286.800 C 19.020 286.800,19.200 287.160,19.200 287.600 C 19.200 288.040,19.380 288.400,19.600 288.400 C 19.820 288.400,19.999 288.625,19.997 288.900 C 19.993 289.659,24.063 297.600,24.457 297.600 C 24.645 297.600,24.800 297.960,24.800 298.400 C 24.800 298.840,24.980 299.200,25.200 299.200 C 25.420 299.200,25.600 299.545,25.600 299.967 C 25.600 300.388,25.735 300.793,25.900 300.867 C 26.065 300.940,26.641 301.810,27.180 302.800 C 28.228 304.724,28.498 305.101,29.900 306.601 C 30.395 307.130,30.800 307.802,30.800 308.094 C 30.800 308.385,31.160 308.883,31.600 309.200 C 32.040 309.517,32.400 310.063,32.400 310.413 C 32.400 310.763,32.760 311.436,33.200 311.908 C 33.640 312.380,34.000 313.004,34.000 313.295 C 34.000 313.586,34.360 314.083,34.800 314.400 C 35.240 314.717,35.600 315.180,35.600 315.429 C 35.600 315.678,36.140 316.446,36.800 317.137 C 37.460 317.828,38.000 318.576,38.000 318.800 C 38.000 319.024,38.540 319.772,39.200 320.463 C 39.860 321.154,40.400 321.890,40.400 322.099 C 40.400 322.308,40.940 322.983,41.600 323.600 C 42.260 324.217,42.800 324.895,42.800 325.107 C 42.800 325.319,43.790 326.523,45.000 327.782 C 46.210 329.042,47.200 330.232,47.200 330.427 C 47.200 330.623,48.640 332.231,50.400 334.000 C 52.160 335.769,53.600 337.380,53.600 337.578 C 53.600 338.044,61.369 345.872,63.202 347.254 C 63.971 347.833,65.909 349.588,67.509 351.154 C 69.108 352.719,70.607 354.000,70.840 354.000 C 71.072 354.000,71.954 354.720,72.800 355.600 C 73.646 356.480,74.531 357.200,74.768 357.200 C 75.005 357.200,75.941 357.920,76.848 358.800 C 77.755 359.680,78.656 360.400,78.852 360.400 C 79.047 360.400,79.772 360.940,80.463 361.600 C 81.154 362.260,81.922 362.800,82.171 362.800 C 82.420 362.800,82.883 363.160,83.200 363.600 C 83.517 364.040,84.057 364.400,84.400 364.400 C 84.743 364.400,85.283 364.760,85.600 365.200 C 85.917 365.640,86.407 366.000,86.688 366.000 C 86.970 366.000,87.200 366.180,87.200 366.400 C 87.200 366.620,87.470 366.800,87.800 366.800 C 88.130 366.800,88.400 366.980,88.400 367.200 C 88.400 367.420,88.726 367.600,89.125 367.600 C 89.523 367.600,90.236 367.960,90.708 368.400 C 91.180 368.840,91.844 369.200,92.183 369.200 C 92.522 369.200,92.800 369.448,92.800 369.751 C 92.800 370.055,93.340 370.527,94.000 370.800 C 94.660 371.073,95.200 371.420,95.200 371.570 C 95.200 371.720,96.097 372.283,97.194 372.821 C 98.290 373.360,99.190 373.935,99.194 374.100 C 99.197 374.265,99.545 374.400,99.967 374.400 C 100.388 374.400,100.793 374.535,100.867 374.700 C 101.034 375.076,103.164 376.375,104.100 376.671 C 104.485 376.793,104.800 377.052,104.800 377.247 C 104.800 377.441,105.160 377.600,105.600 377.600 C 106.040 377.600,106.400 377.780,106.400 378.000 C 106.400 378.220,106.749 378.400,107.176 378.400 C 107.603 378.400,108.064 378.580,108.200 378.800 C 108.336 379.020,108.797 379.200,109.224 379.200 C 109.651 379.200,110.000 379.380,110.000 379.600 C 110.000 379.820,110.360 380.000,110.800 380.000 C 111.240 380.000,111.600 380.180,111.600 380.400 C 111.600 380.620,111.960 380.800,112.400 380.800 C 112.840 380.800,113.200 380.980,113.200 381.200 C 113.200 381.420,113.560 381.600,114.000 381.600 C 114.440 381.600,114.800 381.780,114.800 382.000 C 114.800 382.220,115.160 382.400,115.600 382.400 C 116.040 382.400,116.400 382.580,116.400 382.800 C 116.400 383.020,116.940 383.200,117.600 383.200 C 118.260 383.200,118.800 383.380,118.800 383.600 C 118.800 383.820,119.160 384.000,119.600 384.000 C 120.040 384.000,120.400 384.180,120.400 384.400 C 120.400 384.620,120.760 384.800,121.200 384.800 C 121.640 384.800,122.000 384.980,122.000 385.200 C 122.000 385.420,122.540 385.600,123.200 385.600 C 123.860 385.600,124.400 385.780,124.400 386.000 C 124.400 386.220,124.850 386.400,125.400 386.400 C 125.950 386.400,126.400 386.580,126.400 386.800 C 126.400 387.020,126.839 387.200,127.376 387.200 C 127.913 387.200,128.464 387.380,128.600 387.600 C 128.736 387.820,129.377 388.000,130.024 388.000 C 130.671 388.000,131.200 388.180,131.200 388.400 C 131.200 388.620,131.560 388.800,132.000 388.800 C 132.440 388.800,132.800 388.980,132.800 389.200 C 132.800 389.420,133.263 389.600,133.829 389.600 C 134.394 389.600,135.127 389.870,135.457 390.200 C 135.787 390.530,136.484 390.800,137.005 390.800 C 137.526 390.800,138.064 390.980,138.200 391.200 C 138.336 391.420,138.977 391.600,139.624 391.600 C 140.271 391.600,140.800 391.780,140.800 392.000 C 140.800 392.220,141.329 392.400,141.976 392.400 C 142.623 392.400,143.264 392.580,143.400 392.800 C 143.536 393.020,144.256 393.200,145.000 393.200 C 145.744 393.200,146.464 393.380,146.600 393.600 C 146.736 393.820,147.366 394.000,148.000 394.000 C 148.634 394.000,149.264 394.180,149.400 394.400 C 149.536 394.620,150.267 394.800,151.024 394.800 C 151.781 394.800,152.400 394.980,152.400 395.200 C 152.400 395.420,153.109 395.600,153.976 395.600 C 154.843 395.600,155.664 395.780,155.800 396.000 C 155.936 396.220,156.847 396.400,157.824 396.400 C 158.801 396.400,159.600 396.580,159.600 396.800 C 159.600 397.020,160.579 397.200,161.776 397.200 C 162.973 397.200,164.064 397.380,164.200 397.600 C 164.336 397.820,165.427 398.000,166.624 398.000 C 167.821 398.000,168.800 398.180,168.800 398.400 C 168.800 398.633,170.122 398.800,171.967 398.800 C 174.144 398.800,175.185 398.956,175.300 399.300 C 175.431 399.693,180.729 399.800,200.000 399.800 C 219.271 399.800,224.569 399.693,224.700 399.300 C 224.815 398.956,225.856 398.800,228.033 398.800 C 229.878 398.800,231.200 398.633,231.200 398.400 C 231.200 398.180,232.179 398.000,233.376 398.000 C 234.573 398.000,235.664 397.820,235.800 397.600 C 235.936 397.380,237.027 397.200,238.224 397.200 C 239.421 397.200,240.400 397.020,240.400 396.800 C 240.400 396.580,241.199 396.400,242.176 396.400 C 243.153 396.400,244.064 396.220,244.200 396.000 C 244.336 395.780,245.157 395.600,246.024 395.600 C 246.891 395.600,247.600 395.420,247.600 395.200 C 247.600 394.980,248.219 394.800,248.976 394.800 C 249.733 394.800,250.464 394.620,250.600 394.400 C 250.736 394.180,251.366 394.000,252.000 394.000 C 252.634 394.000,253.264 393.820,253.400 393.600 C 253.536 393.380,254.256 393.200,255.000 393.200 C 255.744 393.200,256.464 393.020,256.600 392.800 C 256.736 392.580,257.377 392.400,258.024 392.400 C 258.671 392.400,259.200 392.220,259.200 392.000 C 259.200 391.780,259.729 391.600,260.376 391.600 C 261.023 391.600,261.664 391.420,261.800 391.200 C 261.936 390.980,262.474 390.800,262.995 390.800 C 263.516 390.800,264.213 390.530,264.543 390.200 C 264.873 389.870,265.606 389.600,266.171 389.600 C 266.737 389.600,267.200 389.420,267.200 389.200 C 267.200 388.980,267.560 388.800,268.000 388.800 C 268.440 388.800,268.800 388.620,268.800 388.400 C 268.800 388.180,269.252 388.000,269.805 388.000 C 270.358 388.000,271.168 387.820,271.605 387.600 C 272.042 387.380,272.758 387.020,273.195 386.800 C 273.632 386.580,274.352 386.400,274.795 386.400 C 275.238 386.400,275.600 386.220,275.600 386.000 C 275.600 385.780,276.039 385.600,276.576 385.600 C 277.113 385.600,277.664 385.420,277.800 385.200 C 277.936 384.980,278.397 384.800,278.824 384.800 C 279.251 384.800,279.600 384.620,279.600 384.400 C 279.600 384.180,279.960 384.000,280.400 384.000 C 280.840 384.000,281.200 383.820,281.200 383.600 C 281.200 383.380,281.740 383.200,282.400 383.200 C 283.060 383.200,283.600 383.020,283.600 382.800 C 283.600 382.580,283.960 382.400,284.400 382.400 C 284.840 382.400,285.200 382.220,285.200 382.000 C 285.200 381.780,285.560 381.600,286.000 381.600 C 286.440 381.600,286.800 381.420,286.800 381.200 C 286.800 380.980,287.160 380.800,287.600 380.800 C 288.040 380.800,288.400 380.620,288.400 380.400 C 288.400 380.180,288.665 380.000,288.988 380.000 C 289.311 380.000,290.217 379.640,291.000 379.200 C 291.783 378.760,292.689 378.400,293.012 378.400 C 293.335 378.400,293.600 378.220,293.600 378.000 C 293.600 377.780,293.945 377.600,294.367 377.600 C 294.788 377.600,295.193 377.465,295.267 377.300 C 295.434 376.924,297.564 375.625,298.500 375.329 C 298.885 375.207,299.200 374.948,299.200 374.753 C 299.200 374.559,299.560 374.400,300.000 374.400 C 300.440 374.400,300.803 374.265,300.806 374.100 C 300.810 373.935,301.710 373.360,302.806 372.821 C 303.903 372.283,304.800 371.720,304.800 371.570 C 304.800 371.420,305.340 371.073,306.000 370.800 C 306.660 370.527,307.200 370.055,307.200 369.751 C 307.200 369.448,307.478 369.200,307.817 369.200 C 308.156 369.200,308.820 368.840,309.292 368.400 C 309.764 367.960,310.477 367.600,310.875 367.600 C 311.274 367.600,311.600 367.420,311.600 367.200 C 311.600 366.980,311.870 366.800,312.200 366.800 C 312.530 366.800,312.800 366.620,312.800 366.400 C 312.800 366.180,313.030 366.000,313.312 366.000 C 313.593 366.000,314.083 365.640,314.400 365.200 C 314.717 364.760,315.257 364.400,315.600 364.400 C 315.943 364.400,316.483 364.040,316.800 363.600 C 317.117 363.160,317.580 362.800,317.829 362.800 C 318.078 362.800,318.846 362.260,319.537 361.600 C 320.228 360.940,320.953 360.400,321.148 360.400 C 321.344 360.400,322.245 359.680,323.152 358.800 C 324.059 357.920,324.985 357.200,325.211 357.200 C 325.437 357.200,326.431 356.390,327.421 355.400 C 328.411 354.410,329.407 353.600,329.635 353.600 C 329.863 353.600,331.253 352.406,332.724 350.947 C 334.196 349.488,336.028 347.823,336.795 347.247 C 338.921 345.652,346.400 337.994,346.400 337.413 C 346.400 337.315,347.930 335.684,349.800 333.788 C 351.670 331.893,353.200 330.176,353.200 329.973 C 353.200 329.770,354.100 328.685,355.200 327.561 C 356.300 326.438,357.200 325.339,357.200 325.120 C 357.200 324.901,357.740 324.217,358.400 323.600 C 359.060 322.983,359.600 322.308,359.600 322.099 C 359.600 321.890,360.140 321.154,360.800 320.463 C 361.460 319.772,362.000 319.024,362.000 318.800 C 362.000 318.576,362.540 317.828,363.200 317.137 C 363.860 316.446,364.400 315.678,364.400 315.429 C 364.400 315.180,364.760 314.717,365.200 314.400 C 365.640 314.083,366.000 313.586,366.000 313.295 C 366.000 313.004,366.360 312.380,366.800 311.908 C 367.240 311.436,367.600 310.763,367.600 310.413 C 367.600 310.063,367.960 309.517,368.400 309.200 C 368.840 308.883,369.200 308.303,369.200 307.912 C 369.200 307.520,369.448 307.200,369.751 307.200 C 370.055 307.200,370.527 306.660,370.800 306.000 C 371.073 305.340,371.420 304.800,371.570 304.800 C 371.720 304.800,372.283 303.903,372.821 302.806 C 373.360 301.710,373.935 300.810,374.100 300.806 C 374.265 300.803,374.400 300.440,374.400 300.000 C 374.400 299.560,374.580 299.200,374.800 299.200 C 375.020 299.200,375.200 298.840,375.200 298.400 C 375.200 297.960,375.355 297.600,375.543 297.600 C 375.937 297.600,380.007 289.659,380.003 288.900 C 380.001 288.625,380.180 288.400,380.400 288.400 C 380.620 288.400,380.800 288.040,380.800 287.600 C 380.800 287.160,380.980 286.800,381.200 286.800 C 381.420 286.800,381.600 286.440,381.600 286.000 C 381.600 285.560,381.780 285.200,382.000 285.200 C 382.220 285.200,382.400 284.851,382.400 284.424 C 382.400 283.997,382.580 283.536,382.800 283.400 C 383.020 283.264,383.200 282.713,383.200 282.176 C 383.200 281.639,383.380 281.200,383.600 281.200 C 383.820 281.200,384.000 280.840,384.000 280.400 C 384.000 279.960,384.180 279.600,384.400 279.600 C 384.620 279.600,384.800 279.240,384.800 278.800 C 384.800 278.360,384.980 278.000,385.200 278.000 C 385.420 278.000,385.600 277.460,385.600 276.800 C 385.600 276.140,385.780 275.600,386.000 275.600 C 386.220 275.600,386.400 275.251,386.400 274.824 C 386.400 274.397,386.580 273.936,386.800 273.800 C 387.020 273.664,387.200 273.124,387.200 272.600 C 387.200 272.076,387.380 271.536,387.600 271.400 C 387.820 271.264,388.000 270.724,388.000 270.200 C 388.000 269.676,388.180 269.136,388.400 269.000 C 388.620 268.864,388.800 268.403,388.800 267.976 C 388.800 267.549,388.980 267.200,389.200 267.200 C 389.420 267.200,389.600 266.660,389.600 266.000 C 389.600 265.340,389.756 264.800,389.947 264.800 C 390.349 264.800,392.400 258.812,392.400 257.638 C 392.400 257.203,392.580 256.736,392.800 256.600 C 393.020 256.464,393.200 255.834,393.200 255.200 C 393.200 254.566,393.380 253.936,393.600 253.800 C 393.820 253.664,394.000 252.933,394.000 252.176 C 394.000 251.419,394.180 250.800,394.400 250.800 C 394.620 250.800,394.800 250.080,394.800 249.200 C 394.800 248.320,394.980 247.600,395.200 247.600 C 395.420 247.600,395.600 246.891,395.600 246.024 C 395.600 245.157,395.780 244.336,396.000 244.200 C 396.220 244.064,396.400 243.153,396.400 242.176 C 396.400 241.199,396.580 240.400,396.800 240.400 C 397.020 240.400,397.200 239.511,397.200 238.424 C 397.200 237.337,397.380 236.336,397.600 236.200 C 397.820 236.064,398.000 234.984,398.000 233.800 C 398.000 232.616,398.180 231.536,398.400 231.400 C 398.620 231.264,398.800 229.939,398.800 228.456 C 398.800 226.833,398.999 225.561,399.300 225.260 C 400.029 224.531,400.029 175.469,399.300 174.740 C 398.998 174.438,398.800 173.163,398.800 171.520 C 398.800 169.973,398.627 168.800,398.400 168.800 C 398.178 168.800,398.000 167.741,398.000 166.424 C 398.000 165.117,397.820 163.936,397.600 163.800 C 397.380 163.664,397.200 162.663,397.200 161.576 C 397.200 160.489,397.020 159.600,396.800 159.600 C 396.580 159.600,396.400 158.801,396.400 157.824 C 396.400 156.847,396.220 155.936,396.000 155.800 C 395.780 155.664,395.600 154.843,395.600 153.976 C 395.600 153.109,395.420 152.400,395.200 152.400 C 394.980 152.400,394.800 151.680,394.800 150.800 C 394.800 149.920,394.620 149.200,394.400 149.200 C 394.180 149.200,394.000 148.581,394.000 147.824 C 394.000 147.067,393.820 146.336,393.600 146.200 C 393.380 146.064,393.200 145.333,393.200 144.576 C 393.200 143.819,393.020 143.200,392.800 143.200 C 392.580 143.200,392.400 142.606,392.400 141.880 C 392.400 141.154,392.248 140.389,392.063 140.180 C 391.877 139.971,391.410 138.765,391.026 137.500 C 390.641 136.235,390.162 135.200,389.963 135.200 C 389.763 135.200,389.600 134.660,389.600 134.000 C 389.600 133.340,389.420 132.800,389.200 132.800 C 388.980 132.800,388.800 132.260,388.800 131.600 C 388.800 130.940,388.620 130.400,388.400 130.400 C 388.180 130.400,388.000 129.950,388.000 129.400 C 388.000 128.850,387.820 128.400,387.600 128.400 C 387.380 128.400,387.200 127.961,387.200 127.424 C 387.200 126.887,387.020 126.336,386.800 126.200 C 386.580 126.064,386.400 125.603,386.400 125.176 C 386.400 124.749,386.220 124.400,386.000 124.400 C 385.780 124.400,385.600 123.860,385.600 123.200 C 385.600 122.540,385.420 122.000,385.200 122.000 C 384.980 122.000,384.800 121.640,384.800 121.200 C 384.800 120.760,384.620 120.400,384.400 120.400 C 384.180 120.400,384.000 120.040,384.000 119.600 C 384.000 119.160,383.820 118.800,383.600 118.800 C 383.380 118.800,383.200 118.451,383.200 118.024 C 383.200 117.597,383.020 117.136,382.800 117.000 C 382.580 116.864,382.400 116.313,382.400 115.776 C 382.400 115.239,382.220 114.800,382.000 114.800 C 381.780 114.800,381.600 114.440,381.600 114.000 C 381.600 113.560,381.420 113.200,381.200 113.200 C 380.980 113.200,380.800 112.840,380.800 112.400 C 380.800 111.960,380.620 111.600,380.400 111.600 C 380.180 111.600,380.000 111.240,380.000 110.800 C 380.000 110.360,379.820 110.000,379.600 110.000 C 379.380 110.000,379.200 109.748,379.200 109.441 C 379.200 109.133,378.634 107.828,377.941 106.541 C 377.249 105.253,376.484 103.796,376.241 103.303 C 375.999 102.810,375.665 102.405,375.500 102.403 C 375.335 102.401,375.200 102.040,375.200 101.600 C 375.200 101.160,375.020 100.800,374.800 100.800 C 374.580 100.800,374.400 100.440,374.400 100.000 C 374.400 99.560,374.242 99.200,374.049 99.200 C 373.855 99.200,373.473 98.660,373.200 98.000 C 372.927 97.340,372.545 96.800,372.351 96.800 C 372.158 96.800,372.000 96.440,372.000 96.000 C 372.000 95.560,371.842 95.200,371.649 95.200 C 371.455 95.200,371.073 94.660,370.800 94.000 C 370.527 93.340,370.055 92.800,369.751 92.800 C 369.448 92.800,369.200 92.480,369.200 92.088 C 369.200 91.697,368.840 91.117,368.400 90.800 C 367.960 90.483,367.600 89.937,367.600 89.587 C 367.600 89.237,367.240 88.564,366.800 88.092 C 366.360 87.620,366.000 86.996,366.000 86.705 C 366.000 86.414,365.640 85.917,365.200 85.600 C 364.760 85.283,364.400 84.791,364.400 84.508 C 364.400 84.225,363.860 83.428,363.200 82.737 C 362.540 82.046,362.000 81.278,362.000 81.029 C 362.000 80.780,361.640 80.317,361.200 80.000 C 360.760 79.683,360.400 79.215,360.400 78.960 C 360.400 78.705,359.680 77.755,358.800 76.848 C 357.920 75.941,357.200 75.015,357.200 74.789 C 357.200 74.563,356.390 73.569,355.400 72.579 C 354.410 71.589,353.600 70.585,353.600 70.348 C 353.600 70.111,352.340 68.670,350.800 67.145 C 349.260 65.620,348.000 64.291,348.000 64.191 C 348.000 63.564,338.826 54.231,336.800 52.797 C 336.030 52.251,334.320 50.709,333.000 49.368 C 331.680 48.028,329.970 46.504,329.200 45.981 C 328.430 45.458,327.323 44.529,326.740 43.915 C 326.156 43.302,325.519 42.800,325.324 42.800 C 325.128 42.800,324.172 42.080,323.200 41.200 C 322.228 40.320,321.272 39.600,321.076 39.600 C 320.881 39.600,320.217 39.060,319.600 38.400 C 318.983 37.740,318.231 37.200,317.928 37.200 C 317.625 37.200,317.117 36.840,316.800 36.400 C 316.483 35.960,315.943 35.600,315.600 35.600 C 315.257 35.600,314.717 35.240,314.400 34.800 C 314.083 34.360,313.593 34.000,313.312 34.000 C 313.030 34.000,312.800 33.820,312.800 33.600 C 312.800 33.380,312.530 33.200,312.200 33.200 C 311.870 33.200,311.600 33.020,311.600 32.800 C 311.600 32.580,311.274 32.400,310.875 32.400 C 310.477 32.400,309.764 32.040,309.292 31.600 C 308.820 31.160,308.238 30.800,307.999 30.800 C 307.759 30.800,307.134 30.371,306.609 29.846 C 306.084 29.321,305.103 28.647,304.428 28.348 C 303.752 28.049,303.200 27.690,303.200 27.551 C 303.200 27.411,302.660 27.073,302.000 26.800 C 301.340 26.527,300.800 26.134,300.800 25.928 C 300.800 25.722,300.635 25.655,300.432 25.780 C 300.230 25.905,299.793 25.736,299.461 25.404 C 299.129 25.072,298.574 24.800,298.229 24.800 C 297.883 24.800,297.599 24.665,297.597 24.500 C 297.595 24.335,297.190 24.001,296.697 23.759 C 296.204 23.516,294.747 22.751,293.459 22.059 C 292.172 21.366,290.867 20.800,290.559 20.800 C 290.252 20.800,290.000 20.620,290.000 20.400 C 290.000 20.180,289.640 20.000,289.200 20.000 C 288.760 20.000,288.400 19.820,288.400 19.600 C 288.400 19.380,288.040 19.200,287.600 19.200 C 287.160 19.200,286.800 19.020,286.800 18.800 C 286.800 18.580,286.440 18.400,286.000 18.400 C 285.560 18.400,285.200 18.220,285.200 18.000 C 285.200 17.780,284.660 17.600,284.000 17.600 C 283.340 17.600,282.800 17.420,282.800 17.200 C 282.800 16.980,282.440 16.800,282.000 16.800 C 281.560 16.800,281.200 16.620,281.200 16.400 C 281.200 16.180,280.840 16.000,280.400 16.000 C 279.960 16.000,279.600 15.820,279.600 15.600 C 279.600 15.380,279.251 15.200,278.824 15.200 C 278.397 15.200,277.936 15.020,277.800 14.800 C 277.664 14.580,277.113 14.400,276.576 14.400 C 276.039 14.400,275.600 14.220,275.600 14.000 C 275.600 13.780,275.150 13.600,274.600 13.600 C 274.050 13.600,273.600 13.420,273.600 13.200 C 273.600 12.980,273.161 12.800,272.624 12.800 C 272.087 12.800,271.536 12.620,271.400 12.400 C 271.264 12.180,270.623 12.000,269.976 12.000 C 269.329 12.000,268.800 11.820,268.800 11.600 C 268.800 11.380,268.440 11.200,268.000 11.200 C 267.560 11.200,267.200 11.020,267.200 10.800 C 267.200 10.580,266.660 10.400,266.000 10.400 C 265.340 10.400,264.800 10.237,264.800 10.037 C 264.800 9.838,263.765 9.359,262.500 8.974 C 261.235 8.590,260.029 8.123,259.820 7.937 C 259.611 7.752,258.857 7.600,258.144 7.600 C 257.431 7.600,256.736 7.420,256.600 7.200 C 256.464 6.980,255.834 6.800,255.200 6.800 C 254.566 6.800,253.936 6.620,253.800 6.400 C 253.664 6.180,252.933 6.000,252.176 6.000 C 251.419 6.000,250.800 5.820,250.800 5.600 C 250.800 5.380,250.080 5.200,249.200 5.200 C 248.320 5.200,247.600 5.038,247.600 4.840 C 247.600 4.642,246.790 4.372,245.800 4.240 C 244.810 4.108,243.190 3.892,242.200 3.760 C 241.210 3.628,240.400 3.358,240.400 3.160 C 240.400 2.962,239.421 2.800,238.224 2.800 C 237.027 2.800,235.936 2.620,235.800 2.400 C 235.664 2.180,234.573 2.000,233.376 2.000 C 232.179 2.000,231.200 1.820,231.200 1.600 C 231.200 1.367,229.878 1.200,228.033 1.200 C 225.911 1.200,224.813 1.040,224.705 0.716 C 224.545 0.236,188.130 -0.115,178.900 0.274 M185.695 54.965 C 192.370 58.185,193.503 67.148,187.823 71.802 C 186.416 72.955,176.238 79.200,175.766 79.200 C 175.707 79.200,174.192 80.100,172.400 81.200 C 170.608 82.300,169.069 83.200,168.980 83.200 C 168.891 83.200,167.060 84.245,164.909 85.522 C 162.759 86.800,159.155 88.911,156.900 90.213 L 152.800 92.582 152.800 199.460 L 152.800 306.337 158.259 309.469 C 161.261 311.191,164.456 313.030,165.359 313.557 C 166.261 314.083,167.540 314.823,168.200 315.201 C 168.860 315.579,170.390 316.479,171.600 317.200 C 172.810 317.921,174.385 318.847,175.100 319.256 C 175.815 319.665,177.075 320.389,177.900 320.865 C 181.648 323.028,181.324 323.001,184.091 321.367 C 185.471 320.552,187.590 319.345,188.800 318.685 C 190.010 318.025,191.180 317.350,191.400 317.185 C 191.620 317.020,192.430 316.530,193.200 316.096 C 193.970 315.662,197.480 313.631,201.000 311.582 C 211.489 305.477,225.772 297.209,228.547 295.637 C 229.287 295.217,231.106 294.137,232.588 293.237 C 234.069 292.337,235.334 291.600,235.399 291.600 C 235.790 291.600,248.646 283.851,248.890 283.469 C 249.244 282.911,249.299 219.409,248.946 218.092 C 248.785 217.493,248.548 217.303,248.251 217.534 C 248.003 217.727,246.810 218.428,245.600 219.091 C 240.315 221.990,231.741 226.977,231.100 227.525 C 230.450 228.081,230.400 229.590,230.400 248.512 L 230.400 268.900 229.362 271.214 C 225.607 279.580,213.148 278.622,210.574 269.771 C 210.052 267.973,209.981 264.293,210.082 244.136 L 210.200 220.600 211.268 218.321 C 213.323 213.937,214.280 213.314,251.352 192.245 C 259.521 187.602,265.398 188.666,268.427 195.335 C 269.558 197.827,269.627 289.240,268.500 292.546 C 267.362 295.886,264.072 298.692,256.200 303.039 C 255.462 303.446,247.561 308.039,235.800 314.898 C 233.160 316.437,230.190 318.149,229.200 318.702 C 228.210 319.255,227.220 319.839,227.000 320.000 C 226.780 320.161,225.790 320.745,224.800 321.296 C 222.808 322.407,217.795 325.309,204.600 332.990 C 199.760 335.807,195.260 338.423,194.600 338.802 C 193.940 339.181,192.238 340.176,190.818 341.013 C 184.395 344.798,179.246 345.216,174.245 342.356 C 173.830 342.119,172.930 341.604,172.245 341.212 C 170.933 340.461,164.918 336.963,155.099 331.239 C 151.854 329.348,148.834 327.601,148.388 327.357 C 140.501 323.051,135.284 319.296,134.155 317.113 C 132.326 313.576,132.409 319.150,132.404 199.262 C 132.400 75.245,132.234 83.721,134.727 80.695 C 136.819 78.158,137.066 77.987,146.660 72.453 C 150.807 70.061,157.530 66.168,161.600 63.803 C 165.670 61.437,169.540 59.189,170.200 58.807 C 170.860 58.425,172.390 57.518,173.600 56.792 C 178.457 53.879,182.253 53.305,185.695 54.965 M183.800 99.433 C 186.946 100.142,189.883 102.834,191.017 106.048 C 191.913 108.587,191.895 289.663,190.998 292.681 C 188.507 301.071,176.607 302.067,172.472 294.231 L 171.400 292.200 171.400 199.400 L 171.400 106.600 172.427 104.600 C 174.145 101.253,179.015 98.424,182.000 99.038 C 182.330 99.106,183.140 99.284,183.800 99.433 " stroke="none" fill="#5b97b6" fill-rule="evenodd"></path></g></svg>