<?xml version="1.0" encoding="UTF-8" standalone="no"?><!-- Generator: Gravit.io --><svg xmlns="http://www.w3.org/2000/svg" xmlns:xlink="http://www.w3.org/1999/xlink" style="isolation:isolate" viewBox="0 0 1280 640" width="1280pt" height="640pt"><defs><clipPath id="_clipPath_QYZIOwOt3rU7wPIWRbN8EX5Ddw1tDdpB"><rect width="1280" height="640"/></clipPath></defs><g clip-path="url(#_clipPath_QYZIOwOt3rU7wPIWRbN8EX5Ddw1tDdpB)"><rect x="-18" y="131" width="1347" height="378" transform="matrix(1,0,0,1,0,0)" fill="rgb(85,147,179)"/><g><path d=" M 106.217 180.775 C 105.905 180.906 105.125 181.412 104.484 181.899 C 103.841 182.385 102.735 182.977 102.026 183.213 C 101.317 183.451 100.312 184.023 99.792 184.488 C 99.272 184.95 98.337 185.502 97.713 185.713 C 97.09 185.923 95.668 186.711 94.557 187.464 C 93.445 188.218 92.301 188.834 92.017 188.834 C 91.733 188.834 90.943 189.32 90.26 189.914 C 89.577 190.508 88.408 191.193 87.663 191.435 C 86.917 191.677 85.934 192.225 85.475 192.65 C 85.019 193.077 83.893 193.758 82.974 194.163 C 82.054 194.57 81.193 195.078 81.062 195.291 C 80.931 195.503 79.946 196.071 78.872 196.551 C 76.833 197.467 73.408 200.544 72.169 202.577 C 71.46 203.739 71.444 205.698 71.444 291.3 L 71.442 378.835 L 73.175 381.074 C 74.128 382.307 75.105 383.385 75.343 383.471 C 75.582 383.556 76.074 384.005 76.437 384.467 C 76.803 384.93 77.522 385.414 78.038 385.543 C 78.554 385.672 79.733 386.292 80.66 386.917 C 81.588 387.543 82.942 388.303 83.672 388.607 C 84.401 388.913 85.114 389.351 85.257 389.582 C 85.4 389.812 86.559 390.469 87.834 391.041 C 89.111 391.613 90.365 392.336 90.623 392.647 C 90.882 392.959 91.817 393.527 92.702 393.91 C 93.588 394.291 94.735 394.97 95.255 395.419 C 95.776 395.868 96.796 396.469 97.523 396.755 C 98.251 397.039 99.56 397.754 100.432 398.339 C 101.303 398.925 102.58 399.592 103.267 399.823 C 103.954 400.053 104.823 400.508 105.201 400.833 C 106.839 402.253 110.438 401.903 114.256 399.956 C 119.944 397.051 121.797 396.021 122.547 395.341 C 122.936 394.99 124.144 394.246 125.226 393.688 C 130.134 391.166 131.76 390.249 132.111 389.8 C 132.318 389.536 133.169 389.048 134.001 388.718 C 134.833 388.388 136.424 387.505 137.535 386.756 C 138.647 386.006 139.773 385.392 140.035 385.392 C 140.297 385.392 141.153 384.882 141.939 384.259 C 142.723 383.635 143.533 383.125 143.738 383.125 C 143.944 383.125 145.13 382.444 146.375 381.614 C 147.621 380.782 148.934 380.101 149.293 380.101 C 149.655 380.101 150.272 379.742 150.669 379.301 C 151.064 378.86 152.323 378.086 153.465 377.582 C 154.604 377.075 155.881 376.341 156.298 375.95 C 156.717 375.559 157.848 374.901 158.813 374.488 C 159.776 374.075 160.678 373.559 160.813 373.339 C 160.948 373.12 161.831 372.6 162.774 372.181 C 163.719 371.764 165 370.994 165.623 370.47 C 166.247 369.946 167.21 369.406 167.766 369.271 C 170.333 368.645 175.225 363.811 175.549 361.579 C 175.686 360.644 175.968 359.199 176.176 358.367 C 176.589 356.723 176.386 316.639 175.874 298.454 C 175.547 286.859 175.499 286.664 172.6 284.872 C 170.244 283.416 164.921 283.891 162.351 285.787 C 161.726 286.246 160.408 286.978 159.421 287.413 C 158.434 287.85 157.624 288.342 157.622 288.509 C 157.618 288.678 156.895 289.15 156.014 289.561 C 155.134 289.972 153.586 290.864 152.575 291.545 C 151.565 292.226 150.514 292.784 150.24 292.784 C 149.968 292.784 149.265 293.185 148.678 293.675 C 148.09 294.165 146.788 294.926 145.783 295.369 C 144.778 295.809 143.446 296.6 142.825 297.124 C 142.201 297.648 141.387 298.075 141.016 298.075 C 140.645 298.075 139.68 298.603 138.872 299.246 C 138.064 299.889 136.892 300.682 136.269 301.003 C 134.381 301.978 132.288 304.422 131.71 306.324 C 131.055 308.482 130.928 342.136 131.563 344.893 C 132.838 350.423 140.331 352.196 144.264 347.901 C 146.174 345.815 146.394 343.962 146.631 328.067 L 146.853 313.263 L 147.969 312.386 C 149.885 310.879 151.707 309.713 153.278 308.991 C 154.11 308.61 155.248 307.929 155.807 307.476 C 156.365 307.025 157.608 306.539 158.565 306.392 C 161.569 305.937 161.406 304.512 161.406 331.033 L 161.406 354.374 L 159.353 355.889 C 158.226 356.723 157.203 357.565 157.082 357.761 C 156.961 357.958 156.34 358.234 155.704 358.373 C 155.067 358.514 154.005 359.093 153.345 359.661 C 152.684 360.229 151.39 360.989 150.469 361.351 C 149.547 361.712 148.3 362.421 147.699 362.927 C 147.097 363.433 146.406 363.848 146.162 363.848 C 145.918 363.848 144.717 364.529 143.494 365.359 C 142.271 366.191 141.048 366.872 140.778 366.872 C 140.506 366.872 139.745 367.365 139.086 367.966 C 138.427 368.568 137.434 369.152 136.88 369.263 C 136.326 369.374 135.226 369.977 134.438 370.605 C 133.65 371.23 132.377 371.943 131.613 372.187 C 130.846 372.433 129.796 373.005 129.276 373.462 C 128.756 373.919 127.608 374.606 126.725 374.987 C 125.841 375.368 125.118 375.801 125.118 375.95 C 125.118 376.097 123.927 376.788 122.472 377.482 C 121.017 378.177 119.825 378.88 119.825 379.047 C 119.825 379.212 118.737 379.861 117.407 380.488 C 116.077 381.118 114.78 381.882 114.526 382.19 C 114.272 382.496 113.919 382.748 113.742 382.748 C 113.563 382.748 112.304 383.258 110.942 383.882 C 108.083 385.19 107.98 385.206 107.349 384.443 C 107.087 384.13 106.098 383.53 105.149 383.109 C 104.2 382.69 102.886 381.936 102.226 381.433 C 101.567 380.931 100.592 380.411 100.06 380.276 C 99.528 380.143 98.792 379.702 98.426 379.297 C 98.059 378.892 97.019 378.235 96.113 377.834 C 95.208 377.433 93.929 376.716 93.272 376.242 C 92.613 375.765 91.388 375.102 90.548 374.768 C 89.686 374.425 88.646 373.613 88.165 372.912 L 87.312 371.665 L 87.409 291.05 L 87.506 210.435 L 88.302 209.367 C 88.739 208.782 89.772 208.045 90.598 207.733 C 91.426 207.422 92.653 206.699 93.33 206.127 C 94.005 205.555 94.761 205.089 95.007 205.089 C 95.255 205.089 96.127 204.62 96.947 204.048 C 98.518 202.95 100.781 201.702 104.518 199.875 C 105.764 199.265 107.103 198.41 107.49 197.973 C 107.879 197.538 109.038 196.901 110.069 196.559 C 111.099 196.218 112.034 195.694 112.15 195.396 C 112.265 195.098 112.846 194.602 113.444 194.292 C 115.854 193.045 116.938 189.126 115.848 185.596 C 114.764 182.077 109.451 179.419 106.217 180.775 Z  M 527.498 180.96 C 527.083 181.19 526.402 181.666 525.985 182.02 C 525.57 182.373 524.635 182.891 523.906 183.169 C 523.179 183.447 522.099 184.007 521.508 184.414 C 520.918 184.823 519.608 185.602 518.597 186.144 C 517.588 186.688 515.776 187.666 514.568 188.32 C 513.363 188.973 512.053 189.866 511.658 190.305 C 511.261 190.744 510.641 191.101 510.278 191.101 C 509.915 191.101 508.771 191.673 507.735 192.37 C 506.698 193.067 505.064 194.018 504.105 194.482 C 503.146 194.947 502.36 195.475 502.36 195.656 C 502.36 195.837 501.641 196.202 500.76 196.466 C 499.594 196.813 498.373 197.739 496.261 199.871 L 493.36 202.799 L 493.102 206.306 C 492.554 213.751 493.036 241.881 493.731 242.941 C 496.974 247.887 503.599 248.623 507.985 244.525 C 508.467 244.075 509.313 243.594 509.863 243.457 C 510.415 243.322 511.215 242.884 511.642 242.484 C 512.071 242.085 513.431 241.234 514.666 240.59 C 518.857 238.41 520.312 237.59 521.333 236.842 C 521.893 236.431 523.253 235.69 524.357 235.198 C 525.461 234.705 526.688 233.939 527.085 233.492 C 527.48 233.046 528.093 232.682 528.449 232.682 C 528.802 232.682 529.755 232.224 530.563 231.662 C 531.371 231.102 532.876 230.199 533.905 229.657 C 537.816 227.596 539.204 222.773 537.111 218.512 C 535.976 216.201 530.793 213.983 529.084 215.077 C 528.627 215.371 527.488 215.81 526.553 216.052 C 525.617 216.296 524.51 216.813 524.091 217.2 C 523.382 217.855 522.087 218.596 517.293 221.087 C 516.252 221.627 515.14 222.324 514.819 222.634 C 513.538 223.875 510.923 224.747 510.109 224.206 C 509.4 223.734 509.355 223.283 509.355 216.882 C 509.355 209.141 509.551 208.593 512.676 207.656 C 513.49 207.414 514.402 206.836 514.704 206.375 C 515.005 205.915 515.712 205.426 516.272 205.291 C 516.834 205.156 518.146 204.483 519.191 203.796 C 520.237 203.109 521.47 202.426 521.935 202.279 C 522.397 202.132 523.243 201.63 523.815 201.161 C 524.384 200.695 525.447 200.081 526.175 199.797 C 526.902 199.514 528.093 198.833 528.82 198.285 C 529.549 197.735 530.74 197.058 531.467 196.78 C 532.195 196.502 533.216 195.896 533.734 195.435 C 534.254 194.973 535.054 194.403 535.513 194.169 C 536.585 193.617 538.271 190.263 538.271 188.681 C 538.271 183.231 531.79 178.585 527.498 180.96 Z  M 106.791 215.427 C 105.884 215.681 104.571 216.549 103.483 217.613 L 101.682 219.376 L 101.682 291.372 L 101.682 363.366 L 103.517 365.083 C 106.983 368.324 112.823 367.94 115.104 364.321 L 116.236 362.524 L 116.236 291.271 L 116.236 220.019 L 115.207 218.302 C 113.75 215.868 109.904 214.553 106.791 215.427 Z  M 679.642 215.78 C 677.351 216.561 677.122 216.745 676.241 218.506 L 675.296 220.396 L 675.016 238.73 C 674.861 248.812 674.639 260.792 674.522 265.351 L 674.307 273.64 L 675.322 275.935 C 677.754 281.449 682.997 283.577 686.948 280.655 C 687.596 280.178 689.107 279.31 690.31 278.729 C 691.511 278.145 692.494 277.514 692.494 277.325 C 692.494 277.134 693.236 276.725 694.142 276.418 C 695.047 276.108 696.518 275.328 697.412 274.68 C 698.303 274.035 699.232 273.505 699.477 273.505 C 699.719 273.505 700.491 272.995 701.19 272.369 C 701.889 271.746 703.015 271.083 703.692 270.896 C 704.367 270.709 705.57 270.054 706.362 269.439 C 707.154 268.825 708.399 268.101 709.126 267.829 C 709.854 267.559 710.79 267.042 711.204 266.685 C 711.621 266.328 712.727 265.698 713.662 265.285 C 720.268 262.369 722.224 255.92 717.786 251.687 C 714.673 248.721 711.955 248.113 709.435 249.825 C 708.715 250.313 707.343 251.012 706.386 251.377 C 705.429 251.743 704.319 252.346 703.92 252.715 C 703.017 253.559 701.021 254.606 700.32 254.606 C 700.03 254.606 699.471 254.961 699.077 255.396 C 698.684 255.831 697.765 256.484 697.034 256.845 C 696.304 257.208 694.795 258.08 693.681 258.785 L 691.654 260.064 L 690.939 259.182 C 690.262 258.346 690.226 257.355 690.226 239.117 L 690.226 219.934 L 688.809 218.177 C 686.369 215.151 683.607 214.428 679.642 215.78 Z  M 587.728 215.985 C 586.757 216.332 585.651 216.894 585.27 217.232 C 584.889 217.569 583.811 218.208 582.874 218.651 C 581.938 219.092 580.588 219.884 579.874 220.408 C 579.157 220.934 578.136 221.469 577.604 221.598 C 577.072 221.729 576.079 222.318 575.396 222.91 C 574.713 223.504 573.921 223.988 573.639 223.988 C 573.355 223.988 572.22 224.596 571.114 225.34 C 570.01 226.083 568.588 226.909 567.957 227.177 C 567.326 227.445 566.486 228.026 566.089 228.471 C 565.694 228.916 565.08 229.279 564.729 229.279 C 564.375 229.279 562.97 230.002 561.606 230.886 C 560.24 231.769 558.641 232.762 558.052 233.089 C 557.331 233.492 556.457 234.735 555.375 236.899 L 553.769 240.11 L 553.769 334.321 L 553.769 428.532 L 555.135 431.334 C 556.763 434.671 556.755 434.665 559.598 435.489 C 562.324 436.277 565.253 435.805 566.68 434.345 C 567.167 433.847 567.991 433.001 568.511 432.467 L 569.456 431.494 L 569.645 337.893 C 569.829 246.898 569.853 244.281 570.542 243.874 C 570.931 243.644 571.84 243.066 572.561 242.592 C 573.282 242.117 574.854 241.234 576.058 240.626 C 577.259 240.019 578.337 239.28 578.45 238.984 C 578.563 238.688 579.246 238.337 579.967 238.202 C 580.688 238.067 582.02 237.396 582.927 236.713 C 583.835 236.032 585.171 235.242 585.899 234.962 C 586.626 234.682 587.657 234.052 588.187 233.566 C 588.719 233.079 589.408 232.682 589.717 232.682 C 590.027 232.682 591.447 231.916 592.87 230.981 C 594.296 230.046 595.69 229.279 595.972 229.279 C 596.253 229.279 596.482 229.138 596.482 228.964 C 596.482 228.791 597.093 227.864 597.84 226.907 C 602.851 220.474 595.96 213.032 587.728 215.985 Z  M 618.477 232.678 C 617.788 232.841 616.852 233.306 616.398 233.713 C 615.943 234.118 615.012 234.67 614.327 234.942 C 613.644 235.212 612.453 235.885 611.682 236.437 C 610.91 236.991 609.685 237.678 608.956 237.966 C 608.23 238.253 607.154 238.885 606.566 239.365 C 605.978 239.848 605.279 240.241 605.015 240.241 C 604.749 240.241 603.367 241.007 601.944 241.942 C 600.518 242.878 599.146 243.644 598.892 243.644 C 598.638 243.644 597.949 244.037 597.361 244.52 C 596.774 245.002 595.735 245.619 595.054 245.893 C 594.373 246.165 593.099 246.962 592.221 247.659 C 591.341 248.357 590.363 248.929 590.045 248.931 C 589.37 248.937 585.52 252.499 585.52 253.12 C 585.52 253.353 585.181 253.974 584.764 254.502 C 584.025 255.443 584.009 256.035 584.009 283.047 L 584.009 310.629 L 584.859 311.701 C 585.328 312.289 586.005 313.192 586.366 313.708 C 586.725 314.222 587.522 314.754 588.135 314.889 C 588.747 315.024 589.451 315.378 589.7 315.678 C 590.287 316.387 592.36 316.371 593.712 315.646 C 594.3 315.328 595.243 314.909 595.807 314.715 C 596.42 314.502 597.409 313.492 598.265 312.203 L 599.696 310.049 L 599.885 285.769 C 600.087 259.657 600.068 259.897 601.983 259.897 C 602.244 259.897 603.286 259.337 604.304 258.654 C 605.321 257.969 606.743 257.175 607.461 256.891 C 608.18 256.607 609.107 256.073 609.524 255.704 C 613.013 252.614 613.493 253.766 613.493 265.226 C 613.493 275.967 613.648 276.743 616.332 279.39 C 619.868 282.874 623.734 282.785 626.849 279.146 C 629.514 276.034 629.4 277.085 629.285 256.416 L 629.18 237.785 L 627.469 235.329 C 626.204 233.512 625.467 232.813 624.635 232.635 C 623.077 232.301 619.977 232.323 618.477 232.678 Z  M 649.934 232.541 C 648.639 232.831 646.489 235.369 645.649 237.596 C 644.629 240.308 644.388 373.696 645.399 377.574 C 646.163 380.506 647.357 382.649 648.584 383.282 C 649.167 383.584 649.872 384.104 650.15 384.437 C 650.426 384.771 651.465 385.394 652.457 385.821 C 653.45 386.248 654.544 386.907 654.885 387.287 C 655.229 387.666 656.432 388.351 657.56 388.807 C 658.686 389.264 659.609 389.782 659.609 389.955 C 659.609 390.13 660.371 390.61 661.302 391.021 C 662.236 391.434 663.554 392.191 664.233 392.703 C 664.912 393.215 666.141 393.914 666.965 394.253 C 667.789 394.593 668.732 395.115 669.06 395.411 C 669.387 395.709 670.584 396.443 671.72 397.045 C 672.854 397.649 675.302 398.947 677.158 399.932 C 680.879 401.905 684.999 402.304 686.696 400.853 C 687.079 400.527 687.987 400.025 688.713 399.739 C 689.442 399.451 690.747 398.741 691.614 398.157 C 692.482 397.573 693.808 396.841 694.561 396.525 C 695.313 396.211 696.018 395.723 696.125 395.441 C 696.234 395.159 697.12 394.627 698.095 394.261 C 699.067 393.894 700.461 393.14 701.188 392.586 C 701.917 392.03 703.106 391.349 703.835 391.069 C 704.561 390.791 705.5 390.259 705.919 389.886 C 706.336 389.514 707.357 388.929 708.187 388.587 C 709.015 388.246 710.214 387.572 710.851 387.092 C 711.488 386.612 712.594 385.974 713.311 385.674 C 714.866 385.025 719.174 380.884 719.807 379.428 C 720.318 378.261 720.709 347.864 720.276 343.146 C 719.716 337.065 714.477 333.632 709.269 335.935 C 707.212 336.844 706.993 337.079 705.473 340.031 L 704.4 342.112 L 704.212 357.112 C 703.999 373.958 704.057 373.631 701.116 374.649 C 700.368 374.909 698.869 375.731 697.783 376.478 C 696.699 377.222 695.581 377.834 695.299 377.834 C 695.019 377.834 694.207 378.344 693.496 378.968 C 692.788 379.591 692.011 380.101 691.773 380.101 C 691.537 380.101 690.264 380.782 688.948 381.614 C 687.631 382.444 686.383 383.125 686.174 383.125 C 685.966 383.125 685.179 383.544 684.425 384.056 L 683.055 384.985 L 679.932 383.461 C 675.681 381.384 672.836 379.835 672.115 379.202 C 671.786 378.912 670.58 378.207 669.437 377.633 C 668.293 377.062 666.848 376.218 666.222 375.761 C 665.599 375.304 664.557 374.721 663.905 374.465 C 663.254 374.208 662.194 373.263 661.549 372.366 L 660.377 370.734 L 660.276 303.602 L 660.175 236.471 L 658.227 234.521 L 656.277 232.573 L 653.502 232.468 C 651.975 232.41 650.369 232.444 649.934 232.541 Z  M 227.678 249.185 C 226.459 249.443 223.475 252.217 222.625 253.881 C 221.78 255.539 221.436 359.046 222.266 361.958 C 224.107 368.409 233.387 369.191 236.345 363.142 L 237.572 360.634 L 237.572 308.282 L 237.572 255.928 L 236.438 253.875 C 234.578 250.504 230.859 248.512 227.678 249.185 Z  M 316.386 249.626 C 315.657 250.029 314.154 250.803 313.044 251.343 C 311.934 251.884 310.519 252.753 309.897 253.277 C 309.276 253.799 308.313 254.34 307.757 254.475 C 307.201 254.61 306.302 255.09 305.758 255.541 C 305.214 255.993 304.193 256.595 303.488 256.881 C 302.786 257.165 301.384 257.961 300.373 258.648 C 299.361 259.335 298.312 259.897 298.038 259.897 C 297.766 259.897 297.034 260.326 296.41 260.85 C 295.789 261.374 294.53 262.134 293.615 262.539 C 292.7 262.944 291.3 263.792 290.508 264.422 C 289.713 265.053 288.856 265.567 288.602 265.567 C 287.575 265.567 282.949 269.707 282.385 271.13 C 281.911 272.328 281.786 276.432 281.619 296.375 C 281.398 322.839 281.567 321.283 278.778 322.617 C 277.944 323.014 276.677 323.78 275.96 324.316 C 275.244 324.852 274.455 325.291 274.207 325.291 C 273.959 325.291 272.929 325.853 271.918 326.542 C 270.907 327.229 269.521 328.017 268.841 328.293 C 268.158 328.569 266.986 329.282 266.236 329.878 C 265.487 330.473 264.661 330.962 264.401 330.962 C 264.141 330.962 263.101 331.531 262.09 332.226 C 261.079 332.921 259.614 333.721 258.834 334.003 C 258.056 334.285 257.418 334.649 257.418 334.813 C 257.418 334.976 256.707 335.558 255.84 336.106 C 252.59 338.159 252.125 339.019 252.125 343.007 L 252.125 346.031 L 254.019 347.975 C 256.674 350.701 262.775 351.122 264.6 348.705 C 264.913 348.289 267.173 347.216 267.735 347.216 C 268.024 347.216 268.586 346.857 268.981 346.418 C 269.653 345.676 271.418 344.625 275.927 342.293 C 276.939 341.768 278.087 341.052 278.474 340.7 C 278.863 340.349 279.85 339.783 280.67 339.439 C 281.49 339.098 282.86 338.336 283.715 337.746 C 284.573 337.156 285.713 336.565 286.249 336.43 C 286.785 336.296 287.518 335.862 287.875 335.465 C 288.234 335.069 289.396 334.327 290.454 333.819 C 293.813 332.204 295.09 330.723 296.359 326.969 L 297.484 323.637 L 297.484 301.742 C 297.484 276.588 297.361 277.535 300.778 276.372 C 301.692 276.06 303.068 275.332 303.836 274.75 C 305.263 273.672 307.779 272.336 309.723 271.621 C 311.988 270.787 311.851 267.547 311.833 321.652 L 311.817 371.218 L 310.604 372.58 C 309.937 373.331 308.543 374.316 307.507 374.772 C 306.471 375.229 305.279 375.922 304.86 376.315 C 304.443 376.706 303.25 377.391 302.21 377.836 C 301.171 378.279 300.05 378.888 299.72 379.186 C 299.115 379.736 296.657 381.118 293.081 382.921 C 292.011 383.461 290.931 384.148 290.68 384.447 C 290.432 384.749 289.352 385.42 288.282 385.942 C 284.877 387.6 282.874 389.232 282.411 390.729 C 281.657 393.163 282.123 399.001 283.07 399.001 C 283.231 399.001 284.101 399.632 285 400.402 C 286.894 402.024 291.024 402.465 292.455 401.201 C 292.831 400.869 294.073 400.21 295.217 399.737 C 296.361 399.265 297.721 398.508 298.241 398.056 C 298.761 397.603 299.762 397.005 300.465 396.727 C 301.167 396.449 302.188 395.854 302.734 395.405 C 303.278 394.954 304.233 394.41 304.856 394.194 C 305.48 393.978 306.899 393.185 308.013 392.433 C 309.125 391.68 310.261 391.063 310.535 391.063 C 310.811 391.063 311.516 390.662 312.103 390.171 C 312.691 389.683 314.021 388.909 315.058 388.452 C 316.094 387.997 317.285 387.312 317.704 386.929 C 318.121 386.546 319.167 385.899 320.027 385.492 C 322.308 384.406 325.056 381.991 325.676 380.528 C 326.301 379.045 326.5 255.03 325.88 253.402 C 324.661 250.206 319.227 248.044 316.386 249.626 Z  M 377.95 249.283 C 377.404 249.457 376.302 250.047 375.5 250.591 C 374.7 251.137 373.854 251.582 373.62 251.582 C 373.388 251.582 372.477 252.106 371.593 252.745 C 370.709 253.385 369.254 254.222 368.357 254.608 C 367.461 254.991 366.586 255.543 366.411 255.833 C 366.234 256.122 365.329 256.66 364.398 257.028 C 363.465 257.395 362.029 258.189 361.205 258.797 C 360.381 259.402 359.422 259.897 359.077 259.897 C 358.731 259.897 357.798 260.413 357.006 261.044 C 356.212 261.674 354.83 262.514 353.934 262.909 C 353.041 263.306 351.737 264.066 351.038 264.598 C 350.339 265.132 349.551 265.567 349.287 265.567 C 348.665 265.567 344.357 269.296 344.357 269.834 C 344.357 270.058 343.974 270.652 343.507 271.148 L 342.655 272.054 L 342.655 325.605 L 342.655 379.156 L 343.979 380.995 C 345.864 383.612 351.181 385.756 352.1 384.269 C 352.225 384.068 352.999 383.721 353.819 383.5 C 355.034 383.173 355.578 382.694 356.734 380.937 L 358.154 378.779 L 358.342 329.26 C 358.557 273.481 358.269 278.163 361.586 276.529 C 362.643 276.011 364.003 275.222 364.61 274.778 C 365.218 274.333 366.393 273.688 367.221 273.342 C 368.049 272.997 369.069 272.395 369.488 272.006 C 369.907 271.617 370.974 271.011 371.857 270.66 C 372.741 270.308 373.463 269.897 373.463 269.745 C 373.463 269.594 374.738 268.847 376.298 268.087 C 377.857 267.324 379.134 266.546 379.134 266.353 C 379.134 266.161 379.704 265.815 380.398 265.587 C 382.16 265.005 386.315 261.846 386.317 261.09 C 386.317 260.747 386.657 259.909 387.071 259.228 C 389.801 254.75 383.228 247.583 377.95 249.283 Z  M 528.564 249.412 C 526.789 250.105 524.242 252.354 523.66 253.744 C 523.05 255.199 522.893 343.488 523.497 345.592 C 525.367 352.116 536.031 351.497 537.858 344.758 C 538.14 343.714 538.267 329.745 538.269 299.54 L 538.271 255.835 L 537.371 253.801 C 535.864 250.394 531.556 248.246 528.564 249.412 Z  M 437.101 249.69 C 436.654 249.87 436.183 250.186 436.056 250.392 C 435.929 250.599 434.97 251.052 433.926 251.397 C 432.884 251.745 431.514 252.461 430.886 252.991 C 430.257 253.522 429.199 254.143 428.533 254.375 C 427.386 254.774 425.988 255.584 421.858 258.243 C 420.852 258.89 419.488 259.609 418.831 259.839 C 418.171 260.068 417.127 260.681 416.51 261.201 C 415.892 261.719 414.671 262.462 413.797 262.849 C 412.924 263.238 411.981 263.828 411.705 264.163 C 411.429 264.499 410.579 264.974 409.815 265.218 C 409.052 265.462 408.087 265.968 407.672 266.345 C 407.255 266.721 406.066 267.392 405.026 267.835 C 403.987 268.277 402.711 269.04 402.191 269.528 C 401.67 270.017 400.529 270.606 399.653 270.839 C 398.778 271.069 397.842 271.565 397.574 271.936 C 397.038 272.683 394.219 274.367 390.568 276.12 C 389.267 276.743 388.205 277.41 388.205 277.601 C 388.205 277.792 387.336 278.324 386.271 278.78 C 385.207 279.239 383.651 280.109 382.813 280.716 C 381.973 281.324 381.01 281.822 380.672 281.822 C 380.335 281.822 379.128 282.505 377.988 283.341 C 373.11 286.921 372.707 287.524 372.707 291.261 L 372.707 294.215 L 374.579 296.24 L 376.449 298.265 L 380.154 298.255 C 383.746 298.248 386.315 297.559 386.315 296.606 C 386.315 296.431 387.087 295.994 388.03 295.633 C 388.976 295.273 390.238 294.565 390.838 294.06 C 391.437 293.556 392.494 292.948 393.185 292.71 C 393.876 292.474 394.952 291.902 395.575 291.439 C 396.201 290.979 397.602 290.153 398.694 289.607 C 399.786 289.061 400.68 288.461 400.68 288.277 C 400.68 288.092 401.458 287.675 402.411 287.351 C 403.362 287.026 404.73 286.246 405.447 285.614 C 406.165 284.983 406.983 284.469 407.265 284.469 C 407.545 284.469 408.641 283.873 409.7 283.144 C 410.758 282.418 411.87 281.822 412.169 281.822 C 412.471 281.822 413.226 281.393 413.847 280.871 C 414.471 280.347 415.886 279.517 416.996 279.024 C 418.104 278.532 419.321 277.788 419.698 277.367 C 420.075 276.948 420.979 276.493 421.703 276.356 C 422.43 276.221 423.377 275.756 423.81 275.324 C 424.741 274.39 428.049 272.379 430.817 271.061 C 431.903 270.545 433.122 269.79 433.525 269.389 C 433.928 268.986 435.292 268.277 436.557 267.817 C 437.821 267.356 438.858 266.832 438.858 266.651 C 438.858 266.228 440.263 266.224 440.523 266.647 C 440.635 266.824 441.752 267.344 443.009 267.803 C 444.266 268.261 445.592 268.956 445.956 269.345 C 446.319 269.735 447.403 270.392 448.364 270.803 C 449.327 271.216 450.238 271.754 450.391 272.002 C 450.542 272.248 451.455 272.814 452.416 273.261 C 453.379 273.707 454.676 274.436 455.299 274.879 C 455.925 275.322 457.199 276.044 458.134 276.483 C 459.369 277.063 460.07 277.722 460.688 278.889 L 461.539 280.498 L 461.522 325.67 L 461.504 370.841 L 460.64 372.352 C 460.032 373.416 459.224 374.127 457.916 374.749 C 456.893 375.235 455.716 375.94 455.299 376.313 C 453.55 377.884 450.29 379.053 449.164 378.515 L 448.118 378.013 L 447.921 334.736 C 447.713 288.912 447.772 290.326 445.958 287.064 C 443.974 283.496 437.228 282.918 433.37 285.985 C 432.588 286.605 431.674 287.113 431.339 287.113 C 431.003 287.113 429.889 287.709 428.867 288.437 C 427.842 289.164 426.824 289.76 426.6 289.76 C 426.377 289.762 425.192 290.441 423.969 291.273 C 422.746 292.105 421.525 292.784 421.259 292.784 C 420.991 292.784 420.262 293.212 419.641 293.735 C 419.017 294.259 417.602 295.089 416.492 295.581 C 415.384 296.073 414.153 296.836 413.756 297.275 C 413.361 297.715 412.755 298.075 412.414 298.075 C 412.072 298.075 410.744 298.756 409.465 299.588 C 408.185 300.42 407.041 301.099 406.924 301.099 C 406.805 301.099 405.844 301.694 404.786 302.423 C 403.727 303.15 402.554 303.745 402.177 303.745 C 401.801 303.745 401.011 304.148 400.424 304.641 C 399.836 305.133 398.474 305.995 397.396 306.559 C 396.318 307.12 395.24 307.813 395.003 308.101 C 394.765 308.387 393.947 308.82 393.183 309.064 C 392.42 309.308 391.455 309.809 391.04 310.176 C 390.623 310.541 389.52 311.224 388.582 311.693 C 387.647 312.16 386.406 312.94 385.825 313.426 C 385.245 313.913 384.115 314.486 383.317 314.701 C 382.521 314.915 381.645 315.358 381.375 315.686 C 381.103 316.011 380.081 316.684 379.1 317.181 C 377.289 318.1 374.045 321.205 373.169 322.861 C 372.457 324.205 372.453 395.778 373.163 397.392 C 374.778 401.056 380.027 403.083 383.291 401.304 C 384.018 400.907 385.38 400.208 386.315 399.749 C 387.25 399.293 388.527 398.544 389.15 398.087 C 389.774 397.629 391.078 396.888 392.049 396.439 C 393.022 395.991 393.917 395.459 394.042 395.258 C 394.165 395.058 395.158 394.45 396.244 393.91 C 397.332 393.37 399.498 392.179 401.057 391.265 C 402.615 390.352 404.488 389.27 405.214 388.861 C 405.943 388.452 407.448 387.505 408.56 386.756 C 409.674 386.006 410.738 385.392 410.927 385.392 C 413.148 385.392 416.514 381.394 417.294 377.822 C 418.108 374.097 417.685 341.8 416.794 339.656 C 414.457 334.031 406.068 333.916 403.005 339.467 C 402.459 340.458 402.365 342.529 402.26 355.992 L 402.139 371.383 L 400.521 373.097 C 399.631 374.038 398.712 374.81 398.48 374.81 C 398.248 374.81 397.007 375.489 395.72 376.321 C 394.433 377.153 393.165 377.834 392.901 377.834 C 392.637 377.834 391.92 378.255 391.308 378.769 L 390.197 379.706 L 389.484 378.92 C 388.805 378.169 388.767 377.044 388.67 354.916 C 388.555 328.962 388.499 329.625 390.872 328.379 C 391.797 327.894 393.304 327.001 394.223 326.395 C 395.142 325.788 396.185 325.291 396.54 325.291 C 396.893 325.291 397.408 325.023 397.68 324.696 C 397.952 324.366 399.036 323.663 400.088 323.133 C 401.14 322.601 402.478 321.769 403.058 321.283 C 403.64 320.796 404.768 320.222 405.566 320.006 C 406.364 319.792 407.24 319.349 407.51 319.023 C 407.782 318.696 408.778 318.03 409.727 317.542 C 410.676 317.056 412.038 316.218 412.753 315.682 C 413.47 315.146 414.349 314.707 414.709 314.707 C 415.068 314.707 415.872 314.278 416.496 313.756 C 417.117 313.232 418.4 312.461 419.343 312.044 C 420.286 311.627 421.533 310.891 422.114 310.41 C 422.694 309.93 423.735 309.344 424.428 309.108 C 425.118 308.872 426.187 308.256 426.8 307.74 C 427.414 307.222 428.549 306.694 429.324 306.565 C 430.098 306.435 430.898 306.289 431.101 306.237 C 432.391 305.913 432.431 307.24 432.441 351.89 C 432.449 395.802 432.524 398.449 433.791 399.191 C 434.146 399.398 435.036 400.079 435.764 400.702 C 437.496 402.179 441.482 402.362 443.267 401.046 C 443.855 400.611 444.933 400.057 445.662 399.817 C 446.388 399.576 447.985 398.699 449.208 397.867 C 450.433 397.035 451.638 396.356 451.89 396.356 C 452.142 396.356 452.651 396.023 453.02 395.613 C 453.389 395.206 454.308 394.676 455.063 394.438 C 455.817 394.2 457.076 393.501 457.86 392.888 C 458.647 392.272 460.042 391.434 460.964 391.027 C 461.885 390.62 462.739 390.126 462.86 389.929 C 462.981 389.733 463.872 389.222 464.839 388.796 C 465.806 388.367 467.118 387.622 467.754 387.14 C 468.389 386.657 469.674 385.911 470.609 385.478 C 472.815 384.463 475.739 381.715 476.464 379.98 C 477.367 377.816 477.324 272.907 476.418 270.999 C 475.618 269.312 471.637 265.716 470.267 265.442 C 469.682 265.325 468.711 264.825 468.109 264.33 C 467.099 263.496 465.431 262.518 460.592 259.917 C 459.552 259.359 457.86 258.36 456.832 257.699 C 455.803 257.038 454.767 256.496 454.529 256.496 C 454.289 256.496 453.8 256.17 453.441 255.775 C 453.081 255.378 452.248 254.838 451.586 254.574 C 450.927 254.312 449.881 253.748 449.263 253.321 C 444.59 250.095 439.707 248.637 437.101 249.69 Z  M 197.694 266.856 C 197.174 267.142 196.296 267.553 195.747 267.769 C 195.195 267.987 194.128 269.089 193.38 270.219 L 192.016 272.272 L 192.113 325.589 C 192.212 378.694 192.216 378.91 192.985 379.788 C 193.412 380.272 194.001 381.152 194.295 381.739 C 194.591 382.329 195.296 383.052 195.862 383.343 C 196.428 383.637 197.114 384.183 197.386 384.561 C 197.66 384.936 198.478 385.482 199.205 385.774 C 199.934 386.064 201.159 386.754 201.931 387.308 C 202.702 387.86 203.893 388.533 204.576 388.803 C 205.261 389.075 206.16 389.582 206.577 389.929 C 206.992 390.279 207.927 390.787 208.656 391.061 C 209.383 391.337 210.488 392.024 211.112 392.59 C 211.735 393.156 212.927 393.835 213.758 394.097 C 214.59 394.359 215.829 395.06 216.512 395.653 C 217.195 396.247 217.93 396.733 218.144 396.733 C 218.361 396.733 219.288 397.251 220.207 397.883 C 221.126 398.514 222.584 399.281 223.445 399.586 C 224.309 399.89 225.564 400.478 226.235 400.893 C 227.887 401.913 231.967 401.953 233.269 400.96 C 233.766 400.583 234.766 400.039 235.493 399.753 C 236.222 399.467 237.659 398.659 238.692 397.958 C 239.722 397.257 241.028 396.59 241.594 396.477 C 242.16 396.364 243.004 395.866 243.471 395.369 C 243.937 394.871 244.511 394.466 244.743 394.466 C 244.978 394.466 246.334 393.7 247.757 392.764 C 249.183 391.829 250.565 391.063 250.829 391.063 C 251.095 391.063 251.792 390.662 252.379 390.169 C 252.967 389.679 253.827 389.159 254.289 389.014 C 254.752 388.869 255.965 388.176 256.987 387.473 C 258.01 386.77 259.495 385.923 260.291 385.591 C 261.085 385.257 262.005 384.743 262.332 384.447 C 262.898 383.935 264.977 382.776 269.404 380.5 C 270.488 379.944 271.68 379.236 272.051 378.928 C 272.422 378.62 273.236 378.126 273.86 377.828 C 274.483 377.532 275.617 376.815 276.377 376.234 C 277.138 375.654 278.47 374.927 279.336 374.621 C 280.201 374.318 281.196 373.754 281.543 373.371 C 281.891 372.989 283.108 372.263 284.248 371.758 C 285.385 371.254 286.614 370.547 286.977 370.188 C 287.341 369.831 288.109 369.426 288.687 369.289 C 289.265 369.154 290.162 368.667 290.68 368.208 C 291.201 367.748 292.42 366.922 293.39 366.368 C 294.977 365.465 295.235 365.119 295.972 362.909 C 296.42 361.559 296.952 360.352 297.155 360.227 C 297.371 360.092 297.385 359.82 297.187 359.562 C 297.004 359.32 296.47 358.158 296.003 356.979 C 294.304 352.688 288.099 351.096 284.126 353.927 C 283.263 354.543 281.79 355.385 280.852 355.795 C 279.917 356.206 278.927 356.816 278.651 357.152 C 278.373 357.487 277.523 357.962 276.76 358.206 C 275.996 358.45 274.817 359.064 274.138 359.57 C 273.461 360.078 271.96 360.926 270.804 361.454 C 269.649 361.982 268.618 362.637 268.513 362.909 C 268.41 363.179 267.931 363.499 267.451 363.62 C 266.97 363.741 265.741 364.402 264.721 365.087 C 263.7 365.774 262.279 366.57 261.56 366.854 C 260.841 367.138 259.91 367.676 259.491 368.048 C 259.072 368.421 258.083 368.995 257.293 369.326 C 256.503 369.656 255.175 370.42 254.339 371.026 C 253.505 371.629 252.24 372.316 251.529 372.551 C 250.817 372.787 250.235 373.144 250.235 373.349 C 250.235 373.551 249.427 374.075 248.44 374.512 C 247.453 374.949 245.831 375.864 244.839 376.547 C 243.846 377.23 242.655 377.907 242.192 378.052 C 241.731 378.197 240.872 378.717 240.284 379.208 C 239.696 379.7 238.993 380.101 238.719 380.101 C 238.447 380.101 237.389 380.677 236.367 381.38 C 234.752 382.49 231.022 384.265 228.973 384.898 C 228.604 385.013 228.312 384.908 228.312 384.66 C 228.312 384.418 227.381 383.806 226.241 383.302 C 225.101 382.797 223.461 381.872 222.594 381.245 C 221.726 380.615 220.793 380.101 220.521 380.101 C 220.249 380.101 219.637 379.696 219.161 379.2 C 218.684 378.705 217.668 378.1 216.903 377.856 C 216.137 377.613 214.894 376.923 214.138 376.323 C 213.383 375.723 212.001 374.939 211.066 374.584 C 207.834 373.349 208.112 377.983 207.899 321.825 L 207.711 272.054 L 206.859 271.148 C 206.392 270.652 206.009 270.072 206.009 269.862 C 206.009 268.111 199.612 265.797 197.694 266.856 Z  M 498.959 266.891 C 498.439 267.187 497.732 267.437 497.386 267.443 C 495.802 267.477 493.416 271.047 493.159 273.767 C 492.828 277.269 492.897 390.884 493.231 394.565 C 493.715 399.874 499.529 403.782 503.496 401.461 C 504.014 401.157 505.328 400.484 506.416 399.964 C 507.502 399.443 509.087 398.516 509.934 397.901 C 510.782 397.287 511.96 396.678 512.549 396.549 C 513.139 396.418 513.931 395.971 514.308 395.554 C 514.686 395.137 515.809 394.444 516.804 394.017 C 517.801 393.588 518.615 393.12 518.615 392.973 C 518.615 392.828 519.677 392.228 520.977 391.641 C 522.276 391.055 523.594 390.285 523.906 389.929 C 524.218 389.576 525.155 389.024 525.985 388.702 C 526.817 388.381 528.407 387.505 529.521 386.756 C 530.633 386.006 531.754 385.392 532.013 385.392 C 532.273 385.392 532.807 385.035 533.204 384.596 C 533.599 384.16 534.526 383.494 535.261 383.119 C 537.157 382.15 538.628 377.876 537.903 375.443 C 536.208 369.761 530.712 367.672 525.796 370.841 C 524.664 371.57 523.396 372.269 522.973 372.396 C 522.552 372.523 521.78 373.005 521.261 373.468 C 520.741 373.932 519.727 374.544 519.008 374.828 C 518.289 375.112 516.87 375.904 515.853 376.589 C 514.835 377.274 513.778 377.834 513.502 377.834 C 513.228 377.834 512.468 378.283 511.815 378.835 C 509.192 381.04 509.377 384.733 509.164 325.94 L 508.976 273.316 L 507.842 271.277 C 505.717 267.459 501.558 265.404 498.959 266.891 Z  M 709.616 284.252 C 708.534 284.514 707.045 285.189 706.308 285.753 C 705.57 286.315 704.414 286.96 703.739 287.185 C 703.064 287.411 702.085 287.981 701.567 288.451 C 701.047 288.924 699.77 289.696 698.732 290.167 C 697.692 290.639 696.542 291.33 696.179 291.702 C 695.813 292.073 694.862 292.553 694.064 292.768 C 693.268 292.982 692.321 293.484 691.96 293.882 C 691.6 294.279 690.425 294.983 689.349 295.446 C 688.273 295.909 687.173 296.6 686.905 296.983 C 686.637 297.364 685.767 297.85 684.971 298.065 C 684.175 298.279 682.882 298.964 682.098 299.588 C 681.314 300.211 680.531 300.721 680.359 300.721 C 679.854 300.721 676.241 304.363 676.241 304.869 C 676.241 305.125 675.983 305.878 675.665 306.543 C 675.165 307.597 675.105 311.28 675.193 335.139 L 675.296 362.524 L 676.441 364.226 C 679.447 368.681 686.402 368.314 689.555 363.533 C 690.175 362.596 690.222 360.787 690.224 338.212 C 690.226 311.836 690.137 312.886 692.486 311.689 C 693.298 311.274 694.59 310.508 695.361 309.985 C 696.129 309.465 696.993 309.038 697.281 309.038 C 697.569 309.038 698.67 308.443 699.729 307.714 C 700.785 306.987 701.871 306.392 702.139 306.392 C 702.409 306.392 703.342 305.796 704.212 305.069 C 705.083 304.341 706.092 303.745 706.455 303.745 C 706.819 303.745 707.694 303.312 708.403 302.782 C 710.083 301.525 714.29 298.952 715.773 298.273 C 720.087 296.298 721.396 290.177 718.297 286.474 C 716.065 283.809 713.817 283.234 709.616 284.252 Z  M 619.749 318.007 C 619.346 318.11 618.409 318.572 617.67 319.035 C 616.932 319.5 615.887 319.988 615.349 320.119 C 614.811 320.252 613.892 320.737 613.308 321.197 C 612.723 321.658 611.291 322.486 610.128 323.036 C 608.964 323.588 607.779 324.32 607.493 324.664 C 607.207 325.009 606.721 325.291 606.409 325.291 C 606.099 325.291 605.057 325.869 604.094 326.574 C 603.129 327.279 601.688 328.126 600.889 328.458 C 600.091 328.79 598.93 329.488 598.31 330.011 C 597.689 330.535 596.881 330.962 596.516 330.962 C 596.15 330.962 595.1 331.537 594.183 332.24 C 593.263 332.941 591.917 333.707 591.191 333.94 C 589.823 334.377 586.279 337.525 584.954 339.483 C 584.21 340.583 584.194 341.385 584.009 390.374 C 583.795 446.915 584.156 441.34 580.584 443.117 C 579.661 443.578 578.678 444.152 578.398 444.392 C 578.12 444.634 576.931 445.341 575.754 445.962 C 574.576 446.584 573.359 447.308 573.046 447.57 C 572.734 447.833 571.63 448.466 570.59 448.974 C 567.727 450.38 565.007 451.962 564.159 452.717 C 563.742 453.09 562.465 453.835 561.326 454.373 C 553.902 457.873 552.089 463.617 556.864 468.515 C 559.648 471.372 563.5 471.58 566.845 469.057 C 567.488 468.572 568.134 468.175 568.281 468.175 C 568.428 468.175 569.446 467.6 570.544 466.899 C 571.642 466.196 572.944 465.493 573.439 465.336 C 573.931 465.179 575.299 464.393 576.478 463.589 C 577.656 462.785 578.782 462.128 578.978 462.128 C 579.177 462.128 580.007 461.621 580.823 461.004 C 581.639 460.387 582.526 459.876 582.794 459.87 C 583.295 459.858 585.177 458.764 585.532 458.278 C 585.643 458.127 586.68 457.569 587.837 457.039 C 588.995 456.509 590.236 455.752 590.595 455.355 C 590.952 454.96 591.687 454.525 592.223 454.39 C 593.788 453.997 597.127 450.884 598.463 448.571 L 599.696 446.441 L 599.885 397.047 L 600.073 347.653 L 601.009 346.659 C 601.523 346.113 602.704 345.328 603.633 344.917 C 604.563 344.504 605.843 343.774 606.479 343.291 C 607.114 342.809 608.442 342.058 609.429 341.623 C 610.416 341.189 611.224 340.672 611.224 340.476 C 611.224 340.281 612.153 339.745 613.289 339.283 C 614.424 338.822 615.566 338.191 615.826 337.877 C 616.084 337.563 617.154 336.928 618.203 336.463 C 619.251 335.999 620.331 335.347 620.607 335.016 C 620.881 334.684 621.57 334.309 622.138 334.186 C 625.007 333.555 629.351 328.484 629.361 325.75 C 629.381 321.15 624.105 316.899 619.749 318.007 Z " fill-rule="evenodd" fill="rgb(255,255,255)"/><path d=" M 0 320 L 0 509 L 397.088 509 L 794.176 509 L 794.176 320 L 794.176 131 L 397.088 131 L 0 131 L 0 320 Z  M 113.325 182.232 C 117.272 185.266 117.341 192.277 113.444 194.292 C 112.846 194.602 112.265 195.098 112.15 195.396 C 112.034 195.694 111.099 196.218 110.069 196.559 C 109.038 196.901 107.879 197.538 107.49 197.973 C 107.103 198.41 105.764 199.265 104.518 199.875 C 100.781 201.702 98.518 202.95 96.947 204.048 C 96.127 204.62 95.255 205.089 95.007 205.089 C 94.761 205.089 94.005 205.555 93.33 206.127 C 92.653 206.699 91.426 207.422 90.598 207.733 C 89.772 208.045 88.739 208.782 88.302 209.367 L 87.506 210.435 L 87.409 291.05 L 87.312 371.665 L 88.165 372.912 C 88.646 373.613 89.686 374.425 90.548 374.768 C 91.388 375.102 92.613 375.765 93.272 376.242 C 93.929 376.716 95.208 377.433 96.113 377.834 C 97.019 378.235 98.059 378.892 98.426 379.297 C 98.792 379.702 99.528 380.143 100.06 380.276 C 100.592 380.411 101.567 380.931 102.226 381.433 C 102.886 381.936 104.2 382.69 105.149 383.109 C 106.098 383.53 107.087 384.13 107.349 384.443 C 107.98 385.206 108.083 385.19 110.942 383.882 C 112.304 383.258 113.563 382.748 113.742 382.748 C 113.919 382.748 114.272 382.496 114.526 382.19 C 114.78 381.882 116.077 381.118 117.407 380.488 C 118.737 379.861 119.825 379.212 119.825 379.047 C 119.825 378.88 121.017 378.177 122.472 377.482 C 123.927 376.788 125.118 376.097 125.118 375.95 C 125.118 375.801 125.841 375.368 126.725 374.987 C 127.608 374.606 128.756 373.919 129.276 373.462 C 129.796 373.005 130.846 372.433 131.613 372.187 C 132.377 371.943 133.65 371.23 134.438 370.605 C 135.226 369.977 136.326 369.374 136.88 369.263 C 137.434 369.152 138.427 368.568 139.086 367.966 C 139.745 367.365 140.506 366.872 140.778 366.872 C 141.048 366.872 142.271 366.191 143.494 365.359 C 144.717 364.529 145.918 363.848 146.162 363.848 C 146.406 363.848 147.097 363.433 147.699 362.927 C 148.3 362.421 149.547 361.712 150.469 361.351 C 151.39 360.989 152.684 360.229 153.345 359.661 C 154.005 359.093 155.067 358.514 155.704 358.373 C 156.34 358.234 156.961 357.958 157.082 357.761 C 157.203 357.565 158.226 356.723 159.353 355.889 L 161.406 354.374 L 161.406 331.033 C 161.406 304.512 161.569 305.937 158.565 306.392 C 157.608 306.539 156.365 307.025 155.807 307.476 C 155.248 307.929 154.11 308.61 153.278 308.991 C 151.707 309.713 149.885 310.879 147.969 312.386 L 146.853 313.263 L 146.631 328.067 C 146.394 343.962 146.174 345.815 144.264 347.901 C 140.331 352.196 132.838 350.423 131.563 344.893 C 130.928 342.136 131.055 308.482 131.71 306.324 C 132.288 304.422 134.381 301.978 136.269 301.003 C 136.892 300.682 138.064 299.889 138.872 299.246 C 139.68 298.603 140.645 298.075 141.016 298.075 C 141.387 298.075 142.201 297.648 142.825 297.124 C 143.446 296.6 144.778 295.809 145.783 295.369 C 146.788 294.926 148.09 294.165 148.678 293.675 C 149.265 293.185 149.968 292.784 150.24 292.784 C 150.514 292.784 151.565 292.226 152.575 291.545 C 153.586 290.864 155.134 289.972 156.014 289.561 C 156.895 289.15 157.618 288.678 157.622 288.509 C 157.624 288.342 158.434 287.85 159.421 287.413 C 160.408 286.978 161.726 286.246 162.351 285.787 C 164.921 283.891 170.244 283.416 172.6 284.872 C 175.499 286.664 175.547 286.859 175.874 298.454 C 176.386 316.639 176.589 356.723 176.176 358.367 C 175.968 359.199 175.686 360.644 175.549 361.579 C 175.225 363.811 170.333 368.645 167.766 369.271 C 167.21 369.406 166.247 369.946 165.623 370.47 C 165 370.994 163.719 371.764 162.774 372.181 C 161.831 372.6 160.948 373.12 160.813 373.339 C 160.678 373.559 159.776 374.075 158.813 374.488 C 157.848 374.901 156.717 375.559 156.298 375.95 C 155.881 376.341 154.604 377.075 153.465 377.582 C 152.323 378.086 151.064 378.86 150.669 379.301 C 150.272 379.742 149.655 380.101 149.293 380.101 C 148.934 380.101 147.621 380.782 146.375 381.614 C 145.13 382.444 143.944 383.125 143.738 383.125 C 143.533 383.125 142.723 383.635 141.939 384.259 C 141.153 384.882 140.297 385.392 140.035 385.392 C 139.773 385.392 138.647 386.006 137.535 386.756 C 136.424 387.505 134.833 388.388 134.001 388.718 C 133.169 389.048 132.318 389.536 132.111 389.8 C 131.76 390.249 130.134 391.166 125.226 393.688 C 124.144 394.246 122.936 394.99 122.547 395.341 C 121.797 396.021 119.944 397.051 114.256 399.956 C 110.438 401.903 106.839 402.253 105.201 400.833 C 104.823 400.508 103.954 400.053 103.267 399.823 C 102.58 399.592 101.303 398.925 100.432 398.339 C 99.56 397.754 98.251 397.039 97.523 396.755 C 96.796 396.469 95.776 395.868 95.255 395.419 C 94.735 394.97 93.588 394.291 92.702 393.91 C 91.817 393.527 90.882 392.959 90.623 392.647 C 90.365 392.336 89.111 391.613 87.834 391.041 C 86.559 390.469 85.4 389.812 85.257 389.582 C 85.114 389.351 84.401 388.913 83.672 388.607 C 82.942 388.303 81.588 387.543 80.66 386.917 C 79.733 386.292 78.554 385.672 78.038 385.543 C 77.522 385.414 76.803 384.93 76.437 384.467 C 76.074 384.005 75.582 383.556 75.343 383.471 C 75.105 383.385 74.128 382.307 73.175 381.074 L 71.442 378.835 L 71.444 291.3 C 71.444 205.698 71.46 203.739 72.169 202.577 C 73.408 200.544 76.833 197.467 78.872 196.551 C 79.946 196.071 80.931 195.503 81.062 195.291 C 81.193 195.078 82.054 194.57 82.974 194.163 C 83.893 193.758 85.019 193.077 85.475 192.65 C 85.934 192.225 86.917 191.677 87.663 191.435 C 88.408 191.193 89.577 190.508 90.26 189.914 C 90.943 189.32 91.733 188.834 92.017 188.834 C 92.301 188.834 93.445 188.218 94.557 187.464 C 95.668 186.711 97.09 185.923 97.713 185.713 C 98.337 185.502 99.272 184.95 99.792 184.488 C 100.312 184.023 101.317 183.451 102.026 183.213 C 102.735 182.977 103.841 182.385 104.484 181.899 C 107.124 179.897 110.45 180.023 113.325 182.232 Z  M 534.917 182.189 C 538.946 185.351 539.287 192.229 535.513 194.169 C 535.054 194.403 534.254 194.973 533.734 195.435 C 533.216 195.896 532.195 196.502 531.467 196.78 C 530.74 197.058 529.549 197.735 528.82 198.285 C 528.093 198.833 526.902 199.514 526.175 199.797 C 525.447 200.081 524.384 200.695 523.815 201.161 C 523.243 201.63 522.397 202.132 521.935 202.279 C 521.47 202.426 520.237 203.109 519.191 203.796 C 518.146 204.483 516.834 205.156 516.272 205.291 C 515.712 205.426 515.005 205.915 514.704 206.375 C 514.402 206.836 513.49 207.414 512.676 207.656 C 509.551 208.593 509.355 209.141 509.355 216.882 C 509.355 223.283 509.4 223.734 510.109 224.206 C 510.923 224.747 513.538 223.875 514.819 222.634 C 515.14 222.324 516.252 221.627 517.293 221.087 C 522.087 218.596 523.382 217.855 524.091 217.2 C 524.51 216.813 525.617 216.296 526.553 216.052 C 527.488 215.81 528.627 215.371 529.084 215.077 C 530.793 213.983 535.976 216.201 537.111 218.512 C 539.204 222.773 537.816 227.596 533.905 229.657 C 532.876 230.199 531.371 231.102 530.563 231.662 C 529.755 232.224 528.802 232.682 528.449 232.682 C 528.093 232.682 527.48 233.046 527.085 233.492 C 526.688 233.939 525.461 234.705 524.357 235.198 C 523.253 235.69 521.893 236.431 521.333 236.842 C 520.312 237.59 518.857 238.41 514.666 240.59 C 513.431 241.234 512.071 242.085 511.642 242.484 C 511.215 242.884 510.415 243.322 509.863 243.457 C 509.313 243.594 508.467 244.075 507.985 244.525 C 503.599 248.623 496.974 247.887 493.731 242.941 C 493.036 241.881 492.554 213.751 493.102 206.306 L 493.36 202.799 L 496.261 199.871 C 498.373 197.739 499.594 196.813 500.76 196.466 C 501.641 196.202 502.36 195.837 502.36 195.656 C 502.36 195.475 503.146 194.947 504.105 194.482 C 505.064 194.018 506.698 193.067 507.735 192.37 C 508.771 191.673 509.915 191.101 510.278 191.101 C 510.641 191.101 511.261 190.744 511.658 190.305 C 512.053 189.866 513.363 188.973 514.568 188.32 C 515.776 187.666 517.588 186.688 518.597 186.144 C 519.608 185.602 520.918 184.823 521.508 184.414 C 522.099 184.007 523.179 183.447 523.906 183.169 C 524.635 182.891 525.57 182.373 525.985 182.02 C 528.598 179.798 531.953 179.862 534.917 182.189 Z  M 112.372 215.965 C 113.825 216.463 114.381 216.922 115.207 218.302 L 116.236 220.019 L 116.236 291.271 L 116.236 362.524 L 115.104 364.321 C 112.823 367.94 106.983 368.324 103.517 365.083 L 101.682 363.366 L 101.682 291.372 L 101.682 219.376 L 103.483 217.613 C 106.203 214.95 108.294 214.561 112.372 215.965 Z  M 685.392 215.667 C 686.837 216.211 687.784 216.906 688.809 218.177 L 690.226 219.934 L 690.226 239.117 C 690.226 257.355 690.262 258.346 690.939 259.182 L 691.654 260.064 L 693.681 258.785 C 694.795 258.08 696.304 257.208 697.034 256.845 C 697.765 256.484 698.684 255.831 699.077 255.396 C 699.471 254.961 700.03 254.606 700.32 254.606 C 701.021 254.606 703.017 253.559 703.92 252.715 C 704.319 252.346 705.429 251.743 706.386 251.377 C 707.343 251.012 708.715 250.313 709.435 249.825 C 711.955 248.113 714.673 248.721 717.786 251.687 C 722.224 255.92 720.268 262.369 713.662 265.285 C 712.727 265.698 711.621 266.328 711.204 266.685 C 710.79 267.042 709.854 267.559 709.126 267.829 C 708.399 268.101 707.154 268.825 706.362 269.439 C 705.57 270.054 704.367 270.709 703.692 270.896 C 703.015 271.083 701.889 271.746 701.19 272.369 C 700.491 272.995 699.719 273.505 699.477 273.505 C 699.232 273.505 698.303 274.035 697.412 274.68 C 696.518 275.328 695.047 276.108 694.142 276.418 C 693.236 276.725 692.494 277.134 692.494 277.325 C 692.494 277.514 691.511 278.145 690.31 278.729 C 689.107 279.31 687.596 280.178 686.948 280.655 C 682.997 283.577 677.754 281.449 675.322 275.935 L 674.307 273.64 L 674.522 265.351 C 674.639 260.792 674.861 248.812 675.016 238.73 L 675.296 220.396 L 676.241 218.506 C 677.728 215.53 681.729 214.289 685.392 215.667 Z  M 595.05 215.882 C 599.317 217.337 600.782 223.128 597.84 226.907 C 597.093 227.864 596.482 228.791 596.482 228.964 C 596.482 229.138 596.253 229.279 595.972 229.279 C 595.69 229.279 594.296 230.046 592.87 230.981 C 591.447 231.916 590.027 232.682 589.717 232.682 C 589.408 232.682 588.719 233.079 588.187 233.566 C 587.657 234.052 586.626 234.682 585.899 234.962 C 585.171 235.242 583.835 236.032 582.927 236.713 C 582.02 237.396 580.688 238.067 579.967 238.202 C 579.246 238.337 578.563 238.688 578.45 238.984 C 578.337 239.28 577.259 240.019 576.058 240.626 C 574.854 241.234 573.282 242.117 572.561 242.592 C 571.84 243.066 570.931 243.644 570.542 243.874 C 569.853 244.281 569.829 246.898 569.645 337.893 L 569.456 431.494 L 568.511 432.467 C 567.991 433.001 567.167 433.847 566.68 434.345 C 565.253 435.805 562.324 436.277 559.598 435.489 C 556.755 434.665 556.763 434.671 555.135 431.334 L 553.769 428.532 L 553.769 334.321 L 553.769 240.11 L 555.375 236.899 C 556.457 234.735 557.331 233.492 558.052 233.089 C 558.641 232.762 560.24 231.769 561.606 230.886 C 562.97 230.002 564.375 229.279 564.729 229.279 C 565.08 229.279 565.694 228.916 566.089 228.471 C 566.486 228.026 567.326 227.445 567.957 227.177 C 568.588 226.909 570.01 226.083 571.114 225.34 C 572.22 224.596 573.355 223.988 573.639 223.988 C 573.921 223.988 574.713 223.504 575.396 222.91 C 576.079 222.318 577.072 221.729 577.604 221.598 C 578.136 221.469 579.157 220.934 579.874 220.408 C 580.588 219.884 581.938 219.092 582.874 218.651 C 583.811 218.208 584.889 217.569 585.27 217.232 C 587.24 215.488 591.977 214.835 595.05 215.882 Z  M 624.635 232.635 C 625.467 232.813 626.204 233.512 627.469 235.329 L 629.18 237.785 L 629.285 256.416 C 629.4 277.085 629.514 276.034 626.849 279.146 C 623.734 282.785 619.868 282.874 616.332 279.39 C 613.648 276.743 613.493 275.967 613.493 265.226 C 613.493 253.766 613.013 252.614 609.524 255.704 C 609.107 256.073 608.18 256.607 607.461 256.891 C 606.743 257.175 605.321 257.969 604.304 258.654 C 603.286 259.337 602.244 259.897 601.983 259.897 C 600.068 259.897 600.087 259.657 599.885 285.769 L 599.696 310.049 L 598.265 312.203 C 597.409 313.492 596.42 314.502 595.807 314.715 C 595.243 314.909 594.3 315.328 593.712 315.646 C 592.36 316.371 590.287 316.387 589.7 315.678 C 589.451 315.378 588.747 315.024 588.135 314.889 C 587.522 314.754 586.725 314.222 586.366 313.708 C 586.005 313.192 585.328 312.289 584.859 311.701 L 584.009 310.629 L 584.009 283.047 C 584.009 256.035 584.025 255.443 584.764 254.502 C 585.181 253.974 585.52 253.353 585.52 253.12 C 585.52 252.499 589.37 248.937 590.045 248.931 C 590.363 248.929 591.341 248.357 592.221 247.659 C 593.099 246.962 594.373 246.165 595.054 245.893 C 595.735 245.619 596.774 245.002 597.361 244.52 C 597.949 244.037 598.638 243.644 598.892 243.644 C 599.146 243.644 600.518 242.878 601.944 241.942 C 603.367 241.007 604.749 240.241 605.015 240.241 C 605.279 240.241 605.978 239.848 606.566 239.365 C 607.154 238.885 608.23 238.253 608.956 237.966 C 609.685 237.678 610.91 236.991 611.682 236.437 C 612.453 235.885 613.644 235.212 614.327 234.942 C 615.012 234.67 615.943 234.118 616.398 233.713 C 617.758 232.496 621.627 231.989 624.635 232.635 Z  M 658.227 234.521 L 660.175 236.471 L 660.276 303.602 L 660.377 370.734 L 661.549 372.366 C 662.194 373.263 663.254 374.208 663.905 374.465 C 664.557 374.721 665.599 375.304 666.222 375.761 C 666.848 376.218 668.293 377.062 669.437 377.633 C 670.58 378.207 671.786 378.912 672.115 379.202 C 672.836 379.835 675.681 381.384 679.932 383.461 L 683.055 384.985 L 684.425 384.056 C 685.179 383.544 685.966 383.125 686.174 383.125 C 686.383 383.125 687.631 382.444 688.948 381.614 C 690.264 380.782 691.537 380.101 691.773 380.101 C 692.011 380.101 692.788 379.591 693.496 378.968 C 694.207 378.344 695.019 377.834 695.299 377.834 C 695.581 377.834 696.699 377.222 697.783 376.478 C 698.869 375.731 700.368 374.909 701.116 374.649 C 704.057 373.631 703.999 373.958 704.212 357.112 L 704.4 342.112 L 705.473 340.031 C 706.993 337.079 707.212 336.844 709.269 335.935 C 714.477 333.632 719.716 337.065 720.276 343.146 C 720.709 347.864 720.318 378.261 719.807 379.428 C 719.174 380.884 714.866 385.025 713.311 385.674 C 712.594 385.974 711.488 386.612 710.851 387.092 C 710.214 387.572 709.015 388.246 708.187 388.587 C 707.357 388.929 706.336 389.514 705.919 389.886 C 705.5 390.259 704.561 390.791 703.835 391.069 C 703.106 391.349 701.917 392.03 701.188 392.586 C 700.461 393.14 699.067 393.894 698.095 394.261 C 697.12 394.627 696.234 395.159 696.125 395.441 C 696.018 395.723 695.313 396.211 694.561 396.525 C 693.808 396.841 692.482 397.573 691.614 398.157 C 690.747 398.741 689.442 399.451 688.713 399.739 C 687.987 400.025 687.079 400.527 686.696 400.853 C 684.999 402.304 680.879 401.905 677.158 399.932 C 675.302 398.947 672.854 397.649 671.72 397.045 C 670.584 396.443 669.387 395.709 669.06 395.411 C 668.732 395.115 667.789 394.593 666.965 394.253 C 666.141 393.914 664.912 393.215 664.233 392.703 C 663.554 392.191 662.236 391.434 661.302 391.021 C 660.371 390.61 659.609 390.13 659.609 389.955 C 659.609 389.782 658.686 389.264 657.56 388.807 C 656.432 388.351 655.229 387.666 654.885 387.287 C 654.544 386.907 653.45 386.248 652.457 385.821 C 651.465 385.394 650.426 384.771 650.15 384.437 C 649.872 384.104 649.167 383.584 648.584 383.282 C 647.357 382.649 646.163 380.506 645.399 377.574 C 644.388 373.696 644.629 240.308 645.649 237.596 C 647.202 233.478 649.009 232.297 653.502 232.468 L 656.277 232.573 L 658.227 234.521 Z  M 233.557 250.597 C 234.655 251.367 235.725 252.584 236.438 253.875 L 237.572 255.928 L 237.572 308.282 L 237.572 360.634 L 236.345 363.142 C 233.387 369.191 224.107 368.409 222.266 361.958 C 221.436 359.046 221.78 255.539 222.625 253.881 C 225.004 249.219 229.61 247.835 233.557 250.597 Z  M 323.605 250.893 C 324.673 251.79 325.696 252.92 325.88 253.402 C 326.5 255.03 326.301 379.045 325.676 380.528 C 325.056 381.991 322.308 384.406 320.027 385.492 C 319.167 385.899 318.121 386.546 317.704 386.929 C 317.285 387.312 316.094 387.997 315.058 388.452 C 314.021 388.909 312.691 389.683 312.103 390.171 C 311.516 390.662 310.811 391.063 310.535 391.063 C 310.261 391.063 309.125 391.68 308.013 392.433 C 306.899 393.185 305.48 393.978 304.856 394.194 C 304.233 394.41 303.278 394.954 302.734 395.405 C 302.188 395.854 301.167 396.449 300.465 396.727 C 299.762 397.005 298.761 397.603 298.241 398.056 C 297.721 398.508 296.361 399.265 295.217 399.737 C 294.073 400.21 292.831 400.869 292.455 401.201 C 291.024 402.465 286.894 402.024 285 400.402 C 284.101 399.632 283.231 399.001 283.07 399.001 C 282.123 399.001 281.657 393.163 282.411 390.729 C 282.874 389.232 284.877 387.6 288.282 385.942 C 289.352 385.42 290.432 384.749 290.68 384.447 C 290.931 384.148 292.011 383.461 293.081 382.921 C 296.657 381.118 299.115 379.736 299.72 379.186 C 300.05 378.888 301.171 378.279 302.21 377.836 C 303.25 377.391 304.443 376.706 304.86 376.315 C 305.279 375.922 306.471 375.229 307.507 374.772 C 308.543 374.316 309.937 373.331 310.604 372.58 L 311.817 371.218 L 311.833 321.652 C 311.851 267.547 311.988 270.787 309.723 271.621 C 307.779 272.336 305.263 273.672 303.836 274.75 C 303.068 275.332 301.692 276.06 300.778 276.372 C 297.361 277.535 297.484 276.588 297.484 301.742 L 297.484 323.637 L 296.359 326.969 C 295.09 330.723 293.813 332.204 290.454 333.819 C 289.396 334.327 288.234 335.069 287.875 335.465 C 287.518 335.862 286.785 336.296 286.249 336.43 C 285.713 336.565 284.573 337.156 283.715 337.746 C 282.86 338.336 281.49 339.098 280.67 339.439 C 279.85 339.783 278.863 340.349 278.474 340.7 C 278.087 341.052 276.939 341.768 275.927 342.293 C 271.418 344.625 269.653 345.676 268.981 346.418 C 268.586 346.857 268.024 347.216 267.735 347.216 C 267.173 347.216 264.913 348.289 264.6 348.705 C 262.775 351.122 256.674 350.701 254.019 347.975 L 252.125 346.031 L 252.125 343.007 C 252.125 339.019 252.59 338.159 255.84 336.106 C 256.707 335.558 257.418 334.976 257.418 334.813 C 257.418 334.649 258.056 334.285 258.834 334.003 C 259.614 333.721 261.079 332.921 262.09 332.226 C 263.101 331.531 264.141 330.962 264.401 330.962 C 264.661 330.962 265.487 330.473 266.236 329.878 C 266.986 329.282 268.158 328.569 268.841 328.293 C 269.521 328.017 270.907 327.229 271.918 326.542 C 272.929 325.853 273.959 325.291 274.207 325.291 C 274.455 325.291 275.244 324.852 275.96 324.316 C 276.677 323.78 277.944 323.014 278.778 322.617 C 281.567 321.283 281.398 322.839 281.619 296.375 C 281.786 276.432 281.911 272.328 282.385 271.13 C 282.949 269.707 287.575 265.567 288.602 265.567 C 288.856 265.567 289.713 265.053 290.508 264.422 C 291.3 263.792 292.7 262.944 293.615 262.539 C 294.53 262.134 295.789 261.374 296.41 260.85 C 297.034 260.326 297.766 259.897 298.038 259.897 C 298.312 259.897 299.361 259.335 300.373 258.648 C 301.384 257.961 302.786 257.165 303.488 256.881 C 304.193 256.595 305.214 255.993 305.758 255.541 C 306.302 255.09 307.201 254.61 307.757 254.475 C 308.313 254.34 309.276 253.799 309.897 253.277 C 310.519 252.753 311.934 251.884 313.044 251.343 C 314.154 250.803 315.657 250.029 316.386 249.626 C 318.58 248.405 321.197 248.864 323.605 250.893 Z  M 384 250.565 C 387.238 252.886 388.598 256.724 387.071 259.228 C 386.657 259.909 386.317 260.747 386.317 261.09 C 386.315 261.846 382.16 265.005 380.398 265.587 C 379.704 265.815 379.134 266.161 379.134 266.353 C 379.134 266.546 377.857 267.324 376.298 268.087 C 374.738 268.847 373.463 269.594 373.463 269.745 C 373.463 269.897 372.741 270.308 371.857 270.66 C 370.974 271.011 369.907 271.617 369.488 272.006 C 369.069 272.395 368.049 272.997 367.221 273.342 C 366.393 273.688 365.218 274.333 364.61 274.778 C 364.003 275.222 362.643 276.011 361.586 276.529 C 358.269 278.163 358.557 273.481 358.342 329.26 L 358.154 378.779 L 356.734 380.937 C 355.578 382.694 355.034 383.173 353.819 383.5 C 352.999 383.721 352.225 384.068 352.1 384.269 C 351.181 385.756 345.864 383.612 343.979 380.995 L 342.655 379.156 L 342.655 325.605 L 342.655 272.054 L 343.507 271.148 C 343.974 270.652 344.357 270.058 344.357 269.834 C 344.357 269.296 348.665 265.567 349.287 265.567 C 349.551 265.567 350.339 265.132 351.038 264.598 C 351.737 264.066 353.041 263.306 353.934 262.909 C 354.83 262.514 356.212 261.674 357.006 261.044 C 357.798 260.413 358.731 259.897 359.077 259.897 C 359.422 259.897 360.381 259.402 361.205 258.797 C 362.029 258.189 363.465 257.395 364.398 257.028 C 365.329 256.66 366.234 256.122 366.411 255.833 C 366.586 255.543 367.461 254.991 368.357 254.608 C 369.254 254.222 370.709 253.385 371.593 252.745 C 372.477 252.106 373.388 251.582 373.62 251.582 C 373.854 251.582 374.7 251.137 375.5 250.591 C 378.506 248.55 381.177 248.54 384 250.565 Z  M 534.602 250.555 C 536.051 251.496 536.676 252.227 537.371 253.801 L 538.271 255.835 L 538.269 299.54 C 538.267 329.745 538.14 343.714 537.858 344.758 C 536.031 351.497 525.367 352.116 523.497 345.592 C 522.893 343.488 523.05 255.199 523.66 253.744 C 525.427 249.521 530.655 247.998 534.602 250.555 Z  M 444.947 250.931 C 446.704 251.818 448.646 252.894 449.263 253.321 C 449.881 253.748 450.927 254.312 451.586 254.574 C 452.248 254.838 453.081 255.378 453.441 255.775 C 453.8 256.17 454.289 256.496 454.529 256.496 C 454.767 256.496 455.803 257.038 456.832 257.699 C 457.86 258.36 459.552 259.359 460.592 259.917 C 465.431 262.518 467.099 263.496 468.109 264.33 C 468.711 264.825 469.682 265.325 470.267 265.442 C 471.637 265.716 475.618 269.312 476.418 270.999 C 477.324 272.907 477.367 377.816 476.464 379.98 C 475.739 381.715 472.815 384.463 470.609 385.478 C 469.674 385.911 468.389 386.657 467.754 387.14 C 467.118 387.622 465.806 388.367 464.839 388.796 C 463.872 389.222 462.981 389.733 462.86 389.929 C 462.739 390.126 461.885 390.62 460.964 391.027 C 460.042 391.434 458.647 392.272 457.86 392.888 C 457.076 393.501 455.817 394.2 455.063 394.438 C 454.308 394.676 453.389 395.206 453.02 395.613 C 452.651 396.023 452.142 396.356 451.89 396.356 C 451.638 396.356 450.433 397.035 449.208 397.867 C 447.985 398.699 446.388 399.576 445.662 399.817 C 444.933 400.057 443.855 400.611 443.267 401.046 C 441.482 402.362 437.496 402.179 435.764 400.702 C 435.036 400.079 434.146 399.398 433.791 399.191 C 432.524 398.449 432.449 395.802 432.441 351.89 C 432.431 307.24 432.391 305.913 431.101 306.237 C 430.898 306.289 430.098 306.435 429.324 306.565 C 428.549 306.694 427.414 307.222 426.8 307.74 C 426.187 308.256 425.118 308.872 424.428 309.108 C 423.735 309.344 422.694 309.93 422.114 310.41 C 421.533 310.891 420.286 311.627 419.343 312.044 C 418.4 312.461 417.117 313.232 416.496 313.756 C 415.872 314.278 415.068 314.707 414.709 314.707 C 414.349 314.707 413.47 315.146 412.753 315.682 C 412.038 316.218 410.676 317.056 409.727 317.542 C 408.778 318.03 407.782 318.696 407.51 319.023 C 407.24 319.349 406.364 319.792 405.566 320.006 C 404.768 320.222 403.64 320.796 403.058 321.283 C 402.478 321.769 401.14 322.601 400.088 323.133 C 399.036 323.663 397.952 324.366 397.68 324.696 C 397.408 325.023 396.893 325.291 396.54 325.291 C 396.185 325.291 395.142 325.788 394.223 326.395 C 393.304 327.001 391.797 327.894 390.872 328.379 C 388.499 329.625 388.555 328.962 388.67 354.916 C 388.767 377.044 388.805 378.169 389.484 378.92 L 390.197 379.706 L 391.308 378.769 C 391.92 378.255 392.637 377.834 392.901 377.834 C 393.165 377.834 394.433 377.153 395.72 376.321 C 397.007 375.489 398.248 374.81 398.48 374.81 C 398.712 374.81 399.631 374.038 400.521 373.097 L 402.139 371.383 L 402.26 355.992 C 402.365 342.529 402.459 340.458 403.005 339.467 C 406.068 333.916 414.457 334.031 416.794 339.656 C 417.685 341.8 418.108 374.097 417.294 377.822 C 416.514 381.394 413.148 385.392 410.927 385.392 C 410.738 385.392 409.674 386.006 408.56 386.756 C 407.448 387.505 405.943 388.452 405.214 388.861 C 404.488 389.27 402.615 390.352 401.057 391.265 C 399.498 392.179 397.332 393.37 396.244 393.91 C 395.158 394.45 394.165 395.058 394.042 395.258 C 393.917 395.459 393.022 395.991 392.049 396.439 C 391.078 396.888 389.774 397.629 389.15 398.087 C 388.527 398.544 387.25 399.293 386.315 399.749 C 385.38 400.208 384.018 400.907 383.291 401.304 C 380.027 403.083 374.778 401.056 373.163 397.392 C 372.453 395.778 372.457 324.205 373.169 322.861 C 374.045 321.205 377.289 318.1 379.1 317.181 C 380.081 316.684 381.103 316.011 381.375 315.686 C 381.645 315.358 382.521 314.915 383.317 314.701 C 384.115 314.486 385.245 313.913 385.825 313.426 C 386.406 312.94 387.647 312.16 388.582 311.693 C 389.52 311.224 390.623 310.541 391.04 310.176 C 391.455 309.809 392.42 309.308 393.183 309.064 C 393.947 308.82 394.765 308.387 395.003 308.101 C 395.24 307.813 396.318 307.12 397.396 306.559 C 398.474 305.995 399.836 305.133 400.424 304.641 C 401.011 304.148 401.801 303.745 402.177 303.745 C 402.554 303.745 403.727 303.15 404.786 302.423 C 405.844 301.694 406.805 301.099 406.924 301.099 C 407.041 301.099 408.185 300.42 409.465 299.588 C 410.744 298.756 412.072 298.075 412.414 298.075 C 412.755 298.075 413.361 297.715 413.756 297.275 C 414.153 296.836 415.384 296.073 416.492 295.581 C 417.602 295.089 419.017 294.259 419.641 293.735 C 420.262 293.212 420.991 292.784 421.259 292.784 C 421.525 292.784 422.746 292.105 423.969 291.273 C 425.192 290.441 426.377 289.762 426.6 289.76 C 426.824 289.76 427.842 289.164 428.867 288.437 C 429.889 287.709 431.003 287.113 431.339 287.113 C 431.674 287.113 432.588 286.605 433.37 285.985 C 437.228 282.918 443.974 283.496 445.958 287.064 C 447.772 290.326 447.713 288.912 447.921 334.736 L 448.118 378.013 L 449.164 378.515 C 450.29 379.053 453.55 377.884 455.299 376.313 C 455.716 375.94 456.893 375.235 457.916 374.749 C 459.224 374.127 460.032 373.416 460.64 372.352 L 461.504 370.841 L 461.522 325.67 L 461.539 280.498 L 460.688 278.889 C 460.07 277.722 459.369 277.063 458.134 276.483 C 457.199 276.044 455.925 275.322 455.299 274.879 C 454.676 274.436 453.379 273.707 452.416 273.261 C 451.455 272.814 450.542 272.248 450.391 272.002 C 450.238 271.754 449.327 271.216 448.364 270.803 C 447.403 270.392 446.319 269.735 445.956 269.345 C 445.592 268.956 444.266 268.261 443.009 267.803 C 441.752 267.344 440.635 266.824 440.523 266.647 C 440.263 266.224 438.858 266.228 438.858 266.651 C 438.858 266.832 437.821 267.356 436.557 267.817 C 435.292 268.277 433.928 268.986 433.525 269.389 C 433.122 269.79 431.903 270.545 430.817 271.061 C 428.049 272.379 424.741 274.39 423.81 275.324 C 423.377 275.756 422.43 276.221 421.703 276.356 C 420.979 276.493 420.075 276.948 419.698 277.367 C 419.321 277.788 418.104 278.532 416.996 279.024 C 415.886 279.517 414.471 280.347 413.847 280.871 C 413.226 281.393 412.471 281.822 412.169 281.822 C 411.87 281.822 410.758 282.418 409.7 283.144 C 408.641 283.873 407.545 284.469 407.265 284.469 C 406.983 284.469 406.165 284.983 405.447 285.614 C 404.73 286.246 403.362 287.026 402.411 287.351 C 401.458 287.675 400.68 288.092 400.68 288.277 C 400.68 288.461 399.786 289.061 398.694 289.607 C 397.602 290.153 396.201 290.979 395.575 291.439 C 394.952 291.902 393.876 292.474 393.185 292.71 C 392.494 292.948 391.437 293.556 390.838 294.06 C 390.238 294.565 388.976 295.273 388.03 295.633 C 387.087 295.994 386.315 296.431 386.315 296.606 C 386.315 297.559 383.746 298.248 380.154 298.255 L 376.449 298.265 L 374.579 296.24 L 372.707 294.215 L 372.707 291.261 C 372.707 287.524 373.11 286.921 377.988 283.341 C 379.128 282.505 380.335 281.822 380.672 281.822 C 381.01 281.822 381.973 281.324 382.813 280.716 C 383.651 280.109 385.207 279.239 386.271 278.78 C 387.336 278.324 388.205 277.792 388.205 277.601 C 388.205 277.41 389.267 276.743 390.568 276.12 C 394.219 274.367 397.038 272.683 397.574 271.936 C 397.842 271.565 398.778 271.069 399.653 270.839 C 400.529 270.606 401.67 270.017 402.191 269.528 C 402.711 269.04 403.987 268.277 405.026 267.835 C 406.066 267.392 407.255 266.721 407.672 266.345 C 408.087 265.968 409.052 265.462 409.815 265.218 C 410.579 264.974 411.429 264.499 411.705 264.163 C 411.981 263.828 412.924 263.238 413.797 262.849 C 414.671 262.462 415.892 261.719 416.51 261.201 C 417.127 260.681 418.171 260.068 418.831 259.839 C 419.488 259.609 420.852 258.89 421.858 258.243 C 425.988 255.584 427.386 254.774 428.533 254.375 C 429.199 254.143 430.257 253.522 430.886 252.991 C 431.514 252.461 432.884 251.745 433.926 251.397 C 434.97 251.052 435.929 250.599 436.056 250.392 C 437.085 248.727 441.071 248.969 444.947 250.931 Z  M 202.608 267.328 C 204.318 267.89 206.009 269.151 206.009 269.862 C 206.009 270.072 206.392 270.652 206.859 271.148 L 207.711 272.054 L 207.899 321.825 C 208.112 377.983 207.834 373.349 211.066 374.584 C 212.001 374.939 213.383 375.723 214.138 376.323 C 214.894 376.923 216.137 377.613 216.903 377.856 C 217.668 378.1 218.684 378.705 219.161 379.2 C 219.637 379.696 220.249 380.101 220.521 380.101 C 220.793 380.101 221.726 380.615 222.594 381.245 C 223.461 381.872 225.101 382.797 226.241 383.302 C 227.381 383.806 228.312 384.418 228.312 384.66 C 228.312 384.908 228.604 385.013 228.973 384.898 C 231.022 384.265 234.752 382.49 236.367 381.38 C 237.389 380.677 238.447 380.101 238.719 380.101 C 238.993 380.101 239.696 379.7 240.284 379.208 C 240.872 378.717 241.731 378.197 242.192 378.052 C 242.655 377.907 243.846 377.23 244.839 376.547 C 245.831 375.864 247.453 374.949 248.44 374.512 C 249.427 374.075 250.235 373.551 250.235 373.349 C 250.235 373.144 250.817 372.787 251.529 372.551 C 252.24 372.316 253.505 371.629 254.339 371.026 C 255.175 370.42 256.503 369.656 257.293 369.326 C 258.083 368.995 259.072 368.421 259.491 368.048 C 259.91 367.676 260.841 367.138 261.56 366.854 C 262.279 366.57 263.7 365.774 264.721 365.087 C 265.741 364.402 266.97 363.741 267.451 363.62 C 267.931 363.499 268.41 363.179 268.513 362.909 C 268.618 362.637 269.649 361.982 270.804 361.454 C 271.96 360.926 273.461 360.078 274.138 359.57 C 274.817 359.064 275.996 358.45 276.76 358.206 C 277.523 357.962 278.373 357.487 278.651 357.152 C 278.927 356.816 279.917 356.206 280.852 355.795 C 281.79 355.385 283.263 354.543 284.126 353.927 C 288.099 351.096 294.304 352.688 296.003 356.979 C 296.47 358.158 297.004 359.32 297.187 359.562 C 297.385 359.82 297.371 360.092 297.155 360.227 C 296.952 360.352 296.42 361.559 295.972 362.909 C 295.235 365.119 294.977 365.465 293.39 366.368 C 292.42 366.922 291.201 367.748 290.68 368.208 C 290.162 368.667 289.265 369.154 288.687 369.289 C 288.109 369.426 287.341 369.831 286.977 370.188 C 286.614 370.547 285.385 371.254 284.248 371.758 C 283.108 372.263 281.891 372.989 281.543 373.371 C 281.196 373.754 280.201 374.318 279.336 374.621 C 278.47 374.927 277.138 375.654 276.377 376.234 C 275.617 376.815 274.483 377.532 273.86 377.828 C 273.236 378.126 272.422 378.62 272.051 378.928 C 271.68 379.236 270.488 379.944 269.404 380.5 C 264.977 382.776 262.898 383.935 262.332 384.447 C 262.005 384.743 261.085 385.257 260.291 385.591 C 259.495 385.923 258.01 386.77 256.987 387.473 C 255.965 388.176 254.752 388.869 254.289 389.014 C 253.827 389.159 252.967 389.679 252.379 390.169 C 251.792 390.662 251.095 391.063 250.829 391.063 C 250.565 391.063 249.183 391.829 247.757 392.764 C 246.334 393.7 244.978 394.466 244.743 394.466 C 244.511 394.466 243.937 394.871 243.471 395.369 C 243.004 395.866 242.16 396.364 241.594 396.477 C 241.028 396.59 239.722 397.257 238.692 397.958 C 237.659 398.659 236.222 399.467 235.493 399.753 C 234.766 400.039 233.766 400.583 233.269 400.96 C 231.967 401.953 227.887 401.913 226.235 400.893 C 225.564 400.478 224.309 399.89 223.445 399.586 C 222.584 399.281 221.126 398.514 220.207 397.883 C 219.288 397.251 218.361 396.733 218.144 396.733 C 217.93 396.733 217.195 396.247 216.512 395.653 C 215.829 395.06 214.59 394.359 213.758 394.097 C 212.927 393.835 211.735 393.156 211.112 392.59 C 210.488 392.024 209.383 391.337 208.656 391.061 C 207.927 390.787 206.992 390.279 206.577 389.929 C 206.16 389.582 205.261 389.075 204.576 388.803 C 203.893 388.533 202.702 387.86 201.931 387.308 C 201.159 386.754 199.934 386.064 199.205 385.774 C 198.478 385.482 197.66 384.936 197.386 384.561 C 197.114 384.183 196.428 383.637 195.862 383.343 C 195.296 383.052 194.591 382.329 194.295 381.739 C 194.001 381.152 193.412 380.272 192.985 379.788 C 192.216 378.91 192.212 378.694 192.113 325.589 L 192.016 272.272 L 193.38 270.219 C 194.128 269.089 195.195 267.987 195.747 267.769 C 196.296 267.553 197.174 267.142 197.694 266.856 C 198.699 266.3 199.795 266.405 202.608 267.328 Z  M 503.16 267.124 C 505.803 268.039 506.273 268.456 507.842 271.277 L 508.976 273.316 L 509.164 325.94 C 509.377 384.733 509.192 381.04 511.815 378.835 C 512.468 378.283 513.228 377.834 513.502 377.834 C 513.778 377.834 514.835 377.274 515.853 376.589 C 516.87 375.904 518.289 375.112 519.008 374.828 C 519.727 374.544 520.741 373.932 521.261 373.468 C 521.78 373.005 522.552 372.523 522.973 372.396 C 523.396 372.269 524.664 371.57 525.796 370.841 C 530.712 367.672 536.208 369.761 537.903 375.443 C 538.628 377.876 537.157 382.15 535.261 383.119 C 534.526 383.494 533.599 384.16 533.204 384.596 C 532.807 385.035 532.273 385.392 532.013 385.392 C 531.754 385.392 530.633 386.006 529.521 386.756 C 528.407 387.505 526.817 388.381 525.985 388.702 C 525.155 389.024 524.218 389.576 523.906 389.929 C 523.594 390.285 522.276 391.055 520.977 391.641 C 519.677 392.228 518.615 392.828 518.615 392.973 C 518.615 393.12 517.801 393.588 516.804 394.017 C 515.809 394.444 514.686 395.137 514.308 395.554 C 513.931 395.971 513.139 396.418 512.549 396.549 C 511.96 396.678 510.782 397.287 509.934 397.901 C 509.087 398.516 507.502 399.443 506.416 399.964 C 505.328 400.484 504.014 401.157 503.496 401.461 C 499.529 403.782 493.715 399.874 493.231 394.565 C 492.897 390.884 492.828 277.269 493.159 273.767 C 493.416 271.047 495.802 267.477 497.386 267.443 C 497.732 267.437 498.439 267.187 498.959 266.891 C 500.21 266.175 500.456 266.189 503.16 267.124 Z  M 715.011 284.135 C 721.152 285.682 721.686 295.567 715.773 298.273 C 714.29 298.952 710.083 301.525 708.403 302.782 C 707.694 303.312 706.819 303.745 706.455 303.745 C 706.092 303.745 705.083 304.341 704.212 305.069 C 703.342 305.796 702.409 306.392 702.139 306.392 C 701.871 306.392 700.785 306.987 699.729 307.714 C 698.67 308.443 697.569 309.038 697.281 309.038 C 696.993 309.038 696.129 309.465 695.361 309.985 C 694.59 310.508 693.298 311.274 692.486 311.689 C 690.137 312.886 690.226 311.836 690.224 338.212 C 690.222 360.787 690.175 362.596 689.555 363.533 C 686.402 368.314 679.447 368.681 676.441 364.226 L 675.296 362.524 L 675.193 335.139 C 675.105 311.28 675.165 307.597 675.665 306.543 C 675.983 305.878 676.241 305.125 676.241 304.869 C 676.241 304.363 679.854 300.721 680.359 300.721 C 680.531 300.721 681.314 300.211 682.098 299.588 C 682.882 298.964 684.175 298.279 684.971 298.065 C 685.767 297.85 686.637 297.364 686.905 296.983 C 687.173 296.6 688.273 295.909 689.349 295.446 C 690.425 294.983 691.6 294.279 691.96 293.882 C 692.321 293.484 693.268 292.982 694.064 292.768 C 694.862 292.553 695.813 292.073 696.179 291.702 C 696.542 291.33 697.692 290.639 698.732 290.167 C 699.77 289.696 701.047 288.924 701.567 288.451 C 702.085 287.981 703.064 287.411 703.739 287.185 C 704.414 286.96 705.57 286.315 706.308 285.753 C 708.514 284.069 712.102 283.402 715.011 284.135 Z  M 625.179 319.035 C 629.202 321.626 630.447 325.758 628.203 329.071 C 626.809 331.13 623.555 333.874 622.138 334.186 C 621.57 334.309 620.881 334.684 620.607 335.016 C 620.331 335.347 619.251 335.999 618.203 336.463 C 617.154 336.928 616.084 337.563 615.826 337.877 C 615.566 338.191 614.424 338.822 613.289 339.283 C 612.153 339.745 611.224 340.281 611.224 340.476 C 611.224 340.672 610.416 341.189 609.429 341.623 C 608.442 342.058 607.114 342.809 606.479 343.291 C 605.843 343.774 604.563 344.504 603.633 344.917 C 602.704 345.328 601.523 346.113 601.009 346.659 L 600.073 347.653 L 599.885 397.047 L 599.696 446.441 L 598.463 448.571 C 597.127 450.884 593.788 453.997 592.223 454.39 C 591.687 454.525 590.952 454.96 590.595 455.355 C 590.236 455.752 588.995 456.509 587.837 457.039 C 586.68 457.569 585.643 458.127 585.532 458.278 C 585.177 458.764 583.295 459.858 582.794 459.87 C 582.526 459.876 581.639 460.387 580.823 461.004 C 580.007 461.621 579.177 462.128 578.978 462.128 C 578.782 462.128 577.656 462.785 576.478 463.589 C 575.299 464.393 573.931 465.179 573.439 465.336 C 572.944 465.493 571.642 466.196 570.544 466.899 C 569.446 467.6 568.428 468.175 568.281 468.175 C 568.134 468.175 567.488 468.572 566.845 469.057 C 563.5 471.58 559.648 471.372 556.864 468.515 C 552.089 463.617 553.902 457.873 561.326 454.373 C 562.465 453.835 563.742 453.09 564.159 452.717 C 565.007 451.962 567.727 450.38 570.59 448.974 C 571.63 448.466 572.734 447.833 573.046 447.57 C 573.359 447.308 574.576 446.584 575.754 445.962 C 576.931 445.341 578.12 444.634 578.398 444.392 C 578.678 444.152 579.661 443.578 580.584 443.117 C 584.156 441.34 583.795 446.915 584.009 390.374 C 584.194 341.385 584.21 340.583 584.954 339.483 C 586.279 337.525 589.823 334.377 591.191 333.94 C 591.917 333.707 593.263 332.941 594.183 332.24 C 595.1 331.537 596.15 330.962 596.516 330.962 C 596.881 330.962 597.689 330.535 598.31 330.011 C 598.93 329.488 600.091 328.79 600.889 328.458 C 601.688 328.126 603.129 327.279 604.094 326.574 C 605.057 325.869 606.099 325.291 606.409 325.291 C 606.721 325.291 607.207 325.009 607.493 324.664 C 607.779 324.32 608.964 323.588 610.128 323.036 C 611.291 322.486 612.723 321.658 613.308 321.197 C 613.892 320.737 614.811 320.252 615.349 320.119 C 615.887 319.988 616.932 319.5 617.67 319.035 C 620.416 317.316 622.509 317.314 625.179 319.035 Z " fill-rule="evenodd" fill="rgb(85,147,179)"/></g><g clip-path="url(#_clipPath_82lY7gzDCkCmD4B65Td2PxUG24agP5uk)"><text transform="matrix(1,0,0,1,794.176,372.712)" style="font-family:'Comfortaa';font-weight:400;font-size:158px;font-style:normal;fill:#000000;stroke:none;">icons</text></g><defs><clipPath id="_clipPath_82lY7gzDCkCmD4B65Td2PxUG24agP5uk"><rect x="0" y="0" width="473.029" height="199.986" transform="matrix(1,0,0,1,794.176,233.514)"/></clipPath></defs><rect x="794.176" y="400" width="473.029" height="67" transform="matrix(1,0,0,1,0,0)" fill="rgb(85,147,179)"/><rect x="1261" y="169" width="36" height="250" transform="matrix(1,0,0,1,0,0)" fill="rgb(85,147,179)"/></g></svg>